<svg version="1.1" xmlns="http://www.w3.org/2000/svg" viewBox="0 0 545.9277277635782 245" width="545.9277277635782" height="245" filter="invert(93%) hue-rotate(180deg)">
  <!-- svg-source:excalidraw -->
  
  <defs>
    <style class="style-fonts">
      @font-face {
        font-family: "Virgil";
        src: url("https://excalidraw.com/Virgil.woff2");
      }
      @font-face {
        font-family: "Cascadia";
        src: url("https://excalidraw.com/Cascadia.woff2");
      }
      @font-face {
        font-family: "Assistant";
        src: url("https://excalidraw.com/Assistant-Regular.woff2");
      }
    </style>
    
  </defs>
  <g stroke-linecap="round" transform="translate(176.53879796769468 10) rotate(0 30.5 32)"><path d="M27.41 -0.48 C33.33 -1.62, 41.33 2.18, 46.57 6.01 C51.81 9.85, 56.89 16.22, 58.87 22.54 C60.85 28.86, 60.78 37.56, 58.44 43.96 C56.1 50.35, 50.45 57.72, 44.83 60.91 C39.21 64.09, 31.21 64.53, 24.74 63.08 C18.26 61.63, 10.28 57.53, 5.99 52.19 C1.71 46.85, -1.31 38.01, -0.95 31.06 C-0.59 24.1, 3.26 15.5, 8.14 10.46 C13.03 5.43, 24.55 2.6, 28.37 0.85 C32.18 -0.9, 30.91 -0.55, 31.03 -0.03 M35.79 -0.75 C42.25 -0.39, 49.97 5.11, 53.99 10.16 C58.01 15.22, 59.68 22.54, 59.92 29.58 C60.16 36.61, 59.26 47, 55.44 52.36 C51.62 57.72, 43.32 60.32, 37 61.72 C30.69 63.13, 23.33 63.78, 17.54 60.79 C11.75 57.8, 4.96 50.18, 2.27 43.79 C-0.41 37.4, -0.33 28.74, 1.42 22.46 C3.17 16.18, 7.06 9.87, 12.77 6.1 C18.49 2.33, 32.01 0.52, 35.71 -0.18 C39.42 -0.88, 35.19 1.09, 35.01 1.89" stroke="#1e1e1e" stroke-width="2" fill="none"></path></g><g transform="translate(201.11266614150497 29.872583002030467) rotate(0 5.859375 12)"><text x="5.859375" y="19.3125" font-family="Cascadia, Segoe UI Emoji" font-size="20px" fill="#1e1e1e" text-anchor="middle" style="white-space: pre;" direction="ltr" dominant-baseline="alphabetic">6</text></g><g stroke-linecap="round" transform="translate(345.0387979676947 34) rotate(0 30.5 32)"><path d="M18.82 2.92 C24.52 -0.02, 34.41 -1.07, 40.82 0.92 C47.22 2.91, 54.05 8.92, 57.24 14.84 C60.43 20.77, 61.27 29.69, 59.97 36.49 C58.67 43.28, 54.27 50.91, 49.45 55.63 C44.62 60.34, 37.4 64.65, 31.02 64.77 C24.63 64.9, 16.21 60.75, 11.13 56.39 C6.05 52.02, 1.65 45.22, 0.54 38.58 C-0.56 31.95, -0.35 22.92, 4.48 16.58 C9.31 10.25, 23.83 2.94, 29.52 0.57 C35.22 -1.79, 38.62 2.03, 38.66 2.38 M27.78 -0.55 C34.28 -1.77, 42.69 1.72, 47.94 5.32 C53.2 8.91, 57.73 14.33, 59.32 21.02 C60.91 27.71, 59.98 38.79, 57.48 45.46 C54.99 52.13, 50.02 57.84, 44.35 61.03 C38.69 64.21, 29.87 66.3, 23.5 64.57 C17.12 62.83, 10.19 56.51, 6.12 50.63 C2.05 44.76, -1.08 36.2, -0.92 29.32 C-0.75 22.45, 2.46 14.46, 7.09 9.4 C11.72 4.33, 23.77 0.41, 26.86 -1.08 C29.95 -2.58, 25.51 -0.33, 25.62 0.43" stroke="#1e1e1e" stroke-width="2" fill="none"></path></g><g transform="translate(369.612666141505 53.87258300203047) rotate(0 5.859375 12)"><text x="5.859375" y="19.3125" font-family="Cascadia, Segoe UI Emoji" font-size="20px" fill="#1e1e1e" text-anchor="middle" style="white-space: pre;" direction="ltr" dominant-baseline="alphabetic">5</text></g><g stroke-linecap="round" transform="translate(179.03879796769468 171) rotate(0 30.5 32)"><path d="M43.81 2.11 C49.47 4.5, 54.94 11.44, 57.48 17.68 C60.03 23.91, 60.61 32.66, 59.07 39.54 C57.53 46.42, 53.44 54.94, 48.24 58.94 C43.05 62.94, 34.44 64.13, 27.9 63.54 C21.36 62.94, 13.54 60.1, 9.01 55.37 C4.47 50.64, 1.27 42, 0.69 35.15 C0.1 28.3, 1.95 19.88, 5.51 14.27 C9.06 8.66, 15.51 3.38, 22.04 1.51 C28.56 -0.37, 40.83 2.61, 44.67 3.02 C48.52 3.43, 45.38 3.26, 45.13 3.97 M21.96 -0.14 C27.45 -2.15, 35.87 0.91, 41.83 4.06 C47.79 7.21, 54.75 12.56, 57.72 18.75 C60.69 24.94, 61.24 34.81, 59.64 41.2 C58.04 47.59, 53.51 53.54, 48.12 57.11 C42.73 60.68, 33.93 63.14, 27.29 62.61 C20.66 62.08, 12.77 58.71, 8.31 53.92 C3.85 49.12, 1.18 40.58, 0.51 33.84 C-0.15 27.11, 0.61 18.94, 4.33 13.51 C8.05 8.08, 20.01 3.4, 22.81 1.27 C25.62 -0.86, 20.93 0.2, 21.19 0.71" stroke="#1e1e1e" stroke-width="2" fill="none"></path></g><g transform="translate(203.61266614150497 190.87258300203047) rotate(0 5.859375 12)"><text x="5.859375" y="19.3125" font-family="Cascadia, Segoe UI Emoji" font-size="20px" fill="#1e1e1e" text-anchor="middle" style="white-space: pre;" direction="ltr" dominant-baseline="alphabetic">5</text></g><g stroke-linecap="round" transform="translate(17.329797433316685 42.82009220775217) rotate(0 11 11.5)"><path d="M12.79 -0.24 C15.04 0.07, 18.24 2.29, 19.75 4.19 C21.27 6.09, 21.99 8.7, 21.88 11.15 C21.77 13.61, 20.57 16.97, 19.1 18.9 C17.62 20.84, 15.3 22.25, 13.05 22.77 C10.8 23.28, 7.62 23.23, 5.58 22.01 C3.55 20.78, 1.66 17.87, 0.84 15.44 C0.03 13, -0.02 9.78, 0.68 7.41 C1.38 5.04, 2.95 2.34, 5.05 1.22 C7.15 0.09, 11.91 0.75, 13.27 0.68 C14.63 0.61, 13.29 0.64, 13.23 0.8 M10.63 0.59 C12.9 0.49, 16.06 0.88, 17.81 2.51 C19.56 4.15, 20.57 7.82, 21.12 10.39 C21.66 12.97, 22.12 16.1, 21.09 17.98 C20.05 19.86, 17.14 20.97, 14.89 21.68 C12.64 22.39, 9.96 22.92, 7.61 22.25 C5.26 21.59, 2.16 19.87, 0.81 17.69 C-0.55 15.52, -0.99 11.77, -0.51 9.21 C-0.03 6.66, 1.8 4, 3.7 2.37 C5.6 0.74, 9.58 -0.26, 10.89 -0.57 C12.2 -0.88, 11.39 0.17, 11.55 0.52" stroke="#1e1e1e" stroke-width="2" fill="none"></path></g><g stroke-linecap="round"><g transform="translate(27.329797433316685 63.82009220775217) rotate(0 0 24.5)"><path d="M0.35 0.37 C0.34 8.61, -0.21 40.89, -0.34 49.07 M-0.14 0.09 C0.05 8.46, 0.59 41.71, 0.72 49.81" stroke="#1e1e1e" stroke-width="2" fill="none"></path></g></g><mask></mask><g stroke-linecap="round"><g transform="translate(27.329797433316685 113.82009220775217) rotate(0 -7.5 9)"><path d="M-0.73 0.16 C-3.51 3.21, -13.64 16.16, -15.92 19.08 M1.08 -0.8 C-1.39 1.86, -11.03 14.25, -13.69 17.53" stroke="#1e1e1e" stroke-width="2" fill="none"></path></g></g><mask></mask><g stroke-linecap="round"><g transform="translate(28.329797433316685 119.82009220775217) rotate(0 8 8.5)"><path d="M-0.92 1.08 C1.96 3.84, 13.8 14.24, 16.56 16.72 M0.79 0.6 C3.63 3.53, 13.59 15.43, 15.91 18.1" stroke="#1e1e1e" stroke-width="2" fill="none"></path></g></g><mask></mask><g stroke-linecap="round"><g transform="translate(28.329797433316685 84.82009220775217) rotate(0 8 7.5)"><path d="M0.56 -0.28 C3.33 1.85, 13.01 11.39, 15.65 13.91 M-0.6 -1.48 C2.05 1.28, 11.78 11.95, 14.52 14.88" stroke="#1e1e1e" stroke-width="2" fill="none"></path></g></g><mask></mask><g stroke-linecap="round"><g transform="translate(26.329797433316685 84.82009220775217) rotate(0 -8 8)"><path d="M-0.35 -1.09 C-3.04 1.61, -12.98 13.06, -15.59 15.88 M1.67 0.96 C-1.19 3.87, -13.24 14.67, -16.33 17.35" stroke="#1e1e1e" stroke-width="2" fill="none"></path></g></g><mask></mask><g stroke-linecap="round"><g transform="translate(50.53879796769468 60) rotate(0 58 -9)"><path d="M0.13 -0.18 C19.46 -3.52, 97.48 -16.09, 116.94 -18.9 M-1.26 -1.32 C17.92 -4.02, 96.84 -14.92, 116.49 -17.83" stroke="#1e1e1e" stroke-width="2" fill="none"></path></g><g transform="translate(50.53879796769468 60) rotate(0 58 -9)"><path d="M94.44 -6.05 C102.38 -8.97, 109.56 -13.48, 116.49 -17.83 M94.44 -6.05 C102.59 -11.19, 110.53 -15.89, 116.49 -17.83" stroke="#1e1e1e" stroke-width="2" fill="none"></path></g><g transform="translate(50.53879796769468 60) rotate(0 58 -9)"><path d="M92.03 -22.98 C101.04 -19.48, 109.13 -17.57, 116.49 -17.83 M92.03 -22.98 C101.09 -21.63, 109.96 -19.83, 116.49 -17.83" stroke="#1e1e1e" stroke-width="2" fill="none"></path></g></g><mask></mask><g stroke-linecap="round" transform="translate(507.77567934751505 85.10194573283195) rotate(0 11 11.5)"><path d="M8.37 -0.04 C10.51 -0.69, 13.53 0.44, 15.66 1.66 C17.78 2.88, 20.14 5.03, 21.12 7.27 C22.1 9.52, 22.27 12.74, 21.56 15.11 C20.85 17.49, 18.77 20.24, 16.88 21.51 C14.99 22.78, 12.45 23.13, 10.22 22.74 C7.99 22.35, 5.24 20.98, 3.5 19.18 C1.77 17.38, -0.01 14.33, -0.17 11.93 C-0.33 9.53, 1.03 6.8, 2.54 4.79 C4.05 2.78, 7.72 0.62, 8.9 -0.15 C10.07 -0.91, 9.54 -0.12, 9.59 0.19 M13.79 -0.4 C16.04 -0.01, 18.44 2.65, 19.81 4.74 C21.17 6.84, 22.17 9.81, 21.96 12.17 C21.74 14.53, 19.96 17.09, 18.51 18.88 C17.06 20.66, 15.42 22.39, 13.24 22.89 C11.06 23.4, 7.52 23.25, 5.43 21.9 C3.35 20.55, 1.61 17.22, 0.74 14.8 C-0.13 12.38, -0.6 9.65, 0.21 7.4 C1.02 5.15, 3.46 2.58, 5.61 1.29 C7.75 0, 11.89 -0.09, 13.07 -0.33 C14.25 -0.56, 12.72 -0.32, 12.68 -0.1" stroke="#1e1e1e" stroke-width="2" fill="none"></path></g><g stroke-linecap="round"><g transform="translate(517.775679347515 106.10194573283195) rotate(0 0 24.5)"><path d="M-0.53 -0.22 C-0.55 7.99, 0.19 40.83, 0.21 48.99 M0.2 -0.81 C0.09 7.52, -0.2 41.34, -0.12 49.69" stroke="#1e1e1e" stroke-width="2" fill="none"></path></g></g><mask></mask><g stroke-linecap="round"><g transform="translate(517.775679347515 156.10194573283195) rotate(0 -7.5 9)"><path d="M0.45 -0.02 C-2 2.98, -13.5 14.49, -15.88 17.51 M-0.77 -1.07 C-2.75 2.13, -11.42 15.36, -13.63 18.79" stroke="#1e1e1e" stroke-width="2" fill="none"></path></g></g><mask></mask><g stroke-linecap="round"><g transform="translate(518.775679347515 162.10194573283195) rotate(0 8 8.5)"><path d="M-0.88 -0.49 C1.9 2.37, 14.17 14.22, 17.15 17.13 M0.86 -1.79 C3.55 1.28, 14.16 15.38, 16.81 18.73" stroke="#1e1e1e" stroke-width="2" fill="none"></path></g></g><mask></mask><g stroke-linecap="round"><g transform="translate(518.775679347515 127.10194573283195) rotate(0 8 7.5)"><path d="M1.15 0.13 C4.13 2.71, 14.35 12.61, 16.99 14.99 M0.3 -0.85 C3.28 1.98, 13.83 13.81, 16.56 16.53" stroke="#1e1e1e" stroke-width="2" fill="none"></path></g></g><mask></mask><g stroke-linecap="round"><g transform="translate(516.775679347515 127.10194573283195) rotate(0 -8 8)"><path d="M0.99 -0.01 C-1.71 2.54, -12.38 12.6, -15.03 15.43 M0.05 -1.06 C-2.82 1.64, -12.94 13.97, -15.47 16.67" stroke="#1e1e1e" stroke-width="2" fill="none"></path></g></g><mask></mask><g stroke-linecap="round"><g transform="translate(500.89983292719023 92.84369204641044) rotate(0 -42.38537809569664 -10.3837986077056)"><path d="M1.08 -0.71 C-13.09 -4.06, -69.4 -16.86, -83.87 -20.32 M0.19 1.53 C-14.16 -2.17, -70.42 -18.54, -84.34 -22.21" stroke="#1e1e1e" stroke-width="2" fill="none"></path></g><g transform="translate(500.89983292719023 92.84369204641044) rotate(0 -42.38537809569664 -10.3837986077056)"><path d="M-59.42 -24.14 C-70.47 -21.64, -78.4 -24.02, -84.34 -22.21 M-59.42 -24.14 C-66.15 -22.85, -71.17 -22.54, -84.34 -22.21" stroke="#1e1e1e" stroke-width="2" fill="none"></path></g><g transform="translate(500.89983292719023 92.84369204641044) rotate(0 -42.38537809569664 -10.3837986077056)"><path d="M-64.01 -7.66 C-73.22 -11.73, -79.33 -20.62, -84.34 -22.21 M-64.01 -7.66 C-69.66 -10.43, -73.56 -14.14, -84.34 -22.21" stroke="#1e1e1e" stroke-width="2" fill="none"></path></g></g><mask></mask><g stroke-linecap="round"><g transform="translate(250.12357744870167 41.372306767417) rotate(0 46.11489888698168 16.30303027606564)"><path d="M-0.75 -0.37 C14.82 5.08, 77.47 26.63, 93.04 32.22" stroke="#1e1e1e" stroke-width="2.5" fill="none" stroke-dasharray="1.5 8"></path></g><g transform="translate(250.12357744870167 41.372306767417) rotate(0 46.11489888698168 16.30303027606564)"><path d="M-1.12 0.3 L12.75 -1.09 L8.1 11.96 L-2.5 -0.17" stroke="none" stroke-width="0" fill="#1e1e1e" fill-rule="evenodd"></path><path d="M-0.75 -0.37 C2.85 0.33, 6.88 -0.5, 14.17 -1.91 M14.17 -1.91 C14.07 3.22, 11.59 6.43, 10.02 10.07 M10.02 10.07 C7.7 8.2, 4.45 4.37, -0.75 -0.37 M-0.75 -0.37 C-0.75 -0.37, -0.75 -0.37, -0.75 -0.37" stroke="#1e1e1e" stroke-width="2.5" fill="none"></path></g><g transform="translate(250.12357744870167 41.372306767417) rotate(0 46.11489888698168 16.30303027606564)"><path d="M92.68 32.89 L76.7 34.52 L80.39 23.63 L91.29 32.42" stroke="none" stroke-width="0" fill="#1e1e1e" fill-rule="evenodd"></path><path d="M93.04 32.22 C88.53 33.55, 84.45 33.55, 78.12 33.71 M78.12 33.71 C80.71 30.43, 81.14 25.29, 82.31 21.74 M82.31 21.74 C85.34 25.2, 87.54 26.67, 93.04 32.22 M93.04 32.22 C93.04 32.22, 93.04 32.22, 93.04 32.22" stroke="#1e1e1e" stroke-width="2.5" fill="none"></path></g></g><mask></mask><g stroke-linecap="round"><g transform="translate(362.4546331595317 106.59197018015885) rotate(0 -59.64908340904367 38.875149488837764)"><path d="M0.52 -0.18 C-19.55 12.44, -99.57 63.63, -119.47 76.55" stroke="#1e1e1e" stroke-width="2.5" fill="none" stroke-dasharray="1.5 8"></path></g><g transform="translate(362.4546331595317 106.59197018015885) rotate(0 -59.64908340904367 38.875149488837764)"><path d="M2.18 -0.97 L-9 10.84 L-13.43 3.19 L-0.53 0.7" stroke="none" stroke-width="0" fill="#1e1e1e" fill-rule="evenodd"></path><path d="M0.52 -0.18 C-2.65 4.41, -6.95 9.91, -7.53 12.48 M-7.53 12.48 C-10.55 8.96, -11.88 7.91, -14.35 1.79 M-14.35 1.79 C-8.77 0.11, -5.85 1.89, 0.52 -0.18 M0.52 -0.18 C0.52 -0.18, 0.52 -0.18, 0.52 -0.18" stroke="#1e1e1e" stroke-width="2.5" fill="none"></path></g><g transform="translate(362.4546331595317 106.59197018015885) rotate(0 -59.64908340904367 38.875149488837764)"><path d="M-117.8 75.77 L-112.93 62.23 L-103.68 75.93 L-120.51 77.43" stroke="none" stroke-width="0" fill="#1e1e1e" fill-rule="evenodd"></path><path d="M-119.47 76.55 C-116.77 71.53, -115.03 67.48, -111.47 63.87 M-111.47 63.87 C-110.71 66.15, -108.37 70.83, -104.61 74.53 M-104.61 74.53 C-108.63 73.94, -115.34 77.02, -119.47 76.55 M-119.47 76.55 C-119.47 76.55, -119.47 76.55, -119.47 76.55" stroke="#1e1e1e" stroke-width="2.5" fill="none"></path></g></g><mask></mask><g stroke-linecap="round"><g transform="translate(209.24406653051733 163.50581223504287) rotate(0 2.4568394126294777 -41.4975076594618)"><path d="M1.06 -0.18 C1.89 -14.02, 4.78 -69.49, 5.28 -83.17" stroke="#1e1e1e" stroke-width="2.5" fill="none" stroke-dasharray="1.5 8"></path></g><g transform="translate(209.24406653051733 163.50581223504287) rotate(0 2.4568394126294777 -41.4975076594618)"><path d="M0.9 -0.77 L-3.58 -14.45 L6.77 -12.53 L0.07 -0.27" stroke="none" stroke-width="0" fill="#1e1e1e" fill-rule="evenodd"></path><path d="M1.06 -0.18 C-0.97 -4.18, -2.78 -10.23, -4.55 -14.09 M-4.55 -14.09 C-1.07 -13.31, 3.46 -14.56, 8.11 -13.42 M8.11 -13.42 C4.38 -8.36, 3.35 -2.76, 1.06 -0.18 M1.06 -0.18 C1.06 -0.18, 1.06 -0.18, 1.06 -0.18" stroke="#1e1e1e" stroke-width="2.5" fill="none"></path></g><g transform="translate(209.24406653051733 163.50581223504287) rotate(0 2.4568394126294777 -41.4975076594618)"><path d="M5.12 -83.76 L11.97 -69.66 L-3.01 -68.99 L4.29 -83.25" stroke="none" stroke-width="0" fill="#1e1e1e" fill-rule="evenodd"></path><path d="M5.28 -83.17 C6.9 -78.26, 8.76 -75.3, 10.99 -69.3 M10.99 -69.3 C5.32 -69, 0.7 -70.7, -1.67 -69.87 M-1.67 -69.87 C-0.03 -74.72, 4.16 -79.01, 5.28 -83.17 M5.28 -83.17 C5.28 -83.17, 5.28 -83.17, 5.28 -83.17" stroke="#1e1e1e" stroke-width="2.5" fill="none"></path></g></g><mask></mask></svg>