<?xml version="1.0" standalone="no"?>
<!DOCTYPE svg PUBLIC "-//W3C//DTD SVG 1.1//EN" "http://www.w3.org/Graphics/SVG/1.1/DTD/svg11.dtd">
<svg version="1.1" xmlns="http://www.w3.org/2000/svg" viewBox="0 0 535.447265625 250.591796875" width="535.447265625" height="250.591796875" filter="invert(93%) hue-rotate(180deg)"><!-- svg-source:excalidraw --><metadata></metadata><defs><style class="style-fonts">
      @font-face { font-family: Excalifont; src: url(https://esm.sh/@excalidraw/excalidraw/dist/prod/fonts/Excalifont/Excalifont-Regular-a88b72a24fb54c9f94e3b5fdaa7481c9.woff2); }</style></defs><g stroke-linecap="round" transform="translate(116.03515625 71.5859375) rotate(0 44.662109375 24.240234374999996)"><path d="M12.12 0 C30.05 -1.84, 48.56 -1.93, 77.2 0 M12.12 0 C31.66 1.5, 50.84 0.54, 77.2 0 M77.2 0 C83.94 -1.94, 90.33 4.07, 89.32 12.12 M77.2 0 C86.24 0.95, 88.17 4.82, 89.32 12.12 M89.32 12.12 C91.49 20.25, 90.16 28.78, 89.32 36.36 M89.32 12.12 C89.94 18.79, 88.9 26.88, 89.32 36.36 M89.32 36.36 C90.65 43.15, 84.95 46.76, 77.2 48.48 M89.32 36.36 C90.07 45, 84.66 50.1, 77.2 48.48 M77.2 48.48 C65.06 46.68, 51.59 46.11, 12.12 48.48 M77.2 48.48 C54.71 49.73, 32.25 48.28, 12.12 48.48 M12.12 48.48 C3.28 50.46, -1.65 43.33, 0 36.36 M12.12 48.48 C5.18 47.64, -1.51 42.15, 0 36.36 M0 36.36 C-0.29 32.1, -0.77 27.91, 0 12.12 M0 36.36 C-1.18 27.57, -0.7 18.19, 0 12.12 M0 12.12 C0.23 2.53, 4.95 -0.61, 12.12 0 M0 12.12 C-1.9 4.01, 4.64 -1.36, 12.12 0" stroke="#1e1e1e" stroke-width="2" fill="none"></path></g><g transform="translate(133.22728729248047 83.326171875) rotate(0 27.46997833251953 12.5)"><text x="27.46997833251953" y="17.619999999999997" font-family="Excalifont, Xiaolai, sans-serif, Segoe UI Emoji" font-size="20px" fill="#1e1e1e" text-anchor="middle" style="white-space: pre;" direction="ltr" dominant-baseline="alphabetic">agent</text></g><g stroke-linecap="round" transform="translate(10 10) rotate(0 107.375 65.77734375)"><path d="M32 0 C68.58 -1.07, 100.08 1.56, 182.75 0 M32 0 C70.73 1.21, 111.04 1.32, 182.75 0 M182.75 0 C204.71 -0.84, 216.08 11.84, 214.75 32 M182.75 0 C206.06 0.07, 212.52 10.44, 214.75 32 M214.75 32 C212.71 49.86, 213.62 64.24, 214.75 99.55 M214.75 32 C215.24 52.56, 215.77 73.02, 214.75 99.55 M214.75 99.55 C213.79 122.12, 205.06 130.07, 182.75 131.55 M214.75 99.55 C213.88 120.2, 205.99 129.8, 182.75 131.55 M182.75 131.55 C148.11 131.65, 111.16 133.27, 32 131.55 M182.75 131.55 C140.02 132.59, 97.39 133.72, 32 131.55 M32 131.55 C9.73 129.92, 1.85 122.85, 0 99.55 M32 131.55 C9.58 130.61, 0.11 118.72, 0 99.55 M0 99.55 C0.3 75.05, 0.1 51.73, 0 32 M0 99.55 C0.93 74.97, -0.34 48.98, 0 32 M0 32 C-0.19 11.95, 8.97 1.92, 32 0 M0 32 C-0.68 10.4, 8.64 1.64, 32 0" stroke="#1e1e1e" stroke-width="2" fill="none"></path></g><g transform="translate(26.4453125 24.8359375) rotate(0 59.36994934082031 12.5)"><text x="0" y="17.619999999999997" font-family="Excalifont, Xiaolai, sans-serif, Segoe UI Emoji" font-size="20px" fill="#1e1e1e" text-anchor="start" style="white-space: pre;" direction="ltr" dominant-baseline="alphabetic">web browser</text></g><g stroke-linecap="round"><g transform="translate(232.80468749999977 73.58028852716676) rotate(0 79.61547822290106 0.0039055545542490133)"><path d="M1.07 -1.13 C27.63 -1.26, 132.98 -0.4, 159.06 -0.26 M0.18 0.9 C26.64 0.9, 131.77 1.15, 158.39 1.15" stroke="#1e1e1e" stroke-width="2" fill="none"></path></g><g transform="translate(232.80468749999977 73.58028852716676) rotate(0 79.61547822290106 0.0039055545542490133)"><path d="M158.66 -0.05 L144.46 7.19 L143.3 -5.12 L156.96 2.06" stroke="none" stroke-width="0" fill="#1e1e1e" fill-rule="evenodd"></path><path d="M158.39 1.15 C153.24 3.68, 150.58 3.49, 144.78 7.47 M158.39 1.15 C154.48 2.91, 151.51 5.32, 144.78 7.47 M144.78 7.47 C143.7 1.99, 143.7 -2.51, 144.8 -5.21 M144.78 7.47 C145.18 4.59, 144.56 1.46, 144.8 -5.21 M144.8 -5.21 C149.72 -3.59, 151.46 -2.78, 158.39 1.15 M144.8 -5.21 C148.95 -3.85, 151.77 -1.47, 158.39 1.15 M158.39 1.15 C158.39 1.15, 158.39 1.15, 158.39 1.15 M158.39 1.15 C158.39 1.15, 158.39 1.15, 158.39 1.15" stroke="#1e1e1e" stroke-width="2" fill="none"></path></g></g><mask></mask><g stroke-linecap="round" transform="translate(401.12890625 33.609375) rotate(0 60.166015625 43.638671875)"><path d="M21.82 0 C49.64 -2.07, 79.72 -2.32, 98.51 0 M21.82 0 C41.44 0.35, 62.51 -0.69, 98.51 0 M98.51 0 C111.65 -0.63, 119.51 6.44, 120.33 21.82 M98.51 0 C113.21 1.87, 119.94 7.48, 120.33 21.82 M120.33 21.82 C122.02 32.19, 120.49 46.73, 120.33 65.46 M120.33 21.82 C120.33 36.99, 120.93 50.1, 120.33 65.46 M120.33 65.46 C120.86 78.78, 114.88 86.99, 98.51 87.28 M120.33 65.46 C118.45 78.86, 110.92 86.89, 98.51 87.28 M98.51 87.28 C77.88 89.54, 54.2 87.02, 21.82 87.28 M98.51 87.28 C80.09 86.06, 62.02 85.98, 21.82 87.28 M21.82 87.28 C6.81 88.44, -0.45 78.55, 0 65.46 M21.82 87.28 C5.01 88.92, 1.95 80.49, 0 65.46 M0 65.46 C-0.01 51.25, 1.77 35.78, 0 21.82 M0 65.46 C-0.59 48.27, 0.64 33.29, 0 21.82 M0 21.82 C-0.59 7.49, 8.79 -1.41, 21.82 0 M0 21.82 C2.27 9.25, 8.6 -0.1, 21.82 0" stroke="#1e1e1e" stroke-width="2" fill="none"></path></g><g transform="translate(422.9349594116211 64.748046875) rotate(0 38.359962463378906 12.5)"><text x="38.359962463378906" y="17.619999999999997" font-family="Excalifont, Xiaolai, sans-serif, Segoe UI Emoji" font-size="20px" fill="#1e1e1e" text-anchor="middle" style="white-space: pre;" direction="ltr" dominant-baseline="alphabetic">backend</text></g><g transform="translate(247.48828125 40.47265625) rotate(0 56.869964599609375 12.5)"><text x="0" y="17.619999999999997" font-family="Excalifont, Xiaolai, sans-serif, Segoe UI Emoji" font-size="20px" fill="#1e1e1e" text-anchor="start" style="white-space: pre;" direction="ltr" dominant-baseline="alphabetic">example.com</text></g><g stroke-linecap="round"><g transform="translate(236.83869253489797 113.89393373122832) rotate(0 79.65548413270812 48.08856457515981)"><path d="M-0.57 0.6 C25.95 16.33, 132.99 79.14, 159.88 95.15 M1.33 -0.14 C27.62 15.67, 132.38 80.5, 158.9 96.31" stroke="#1e1e1e" stroke-width="2" fill="none"></path></g><g transform="translate(236.83869253489797 113.89393373122832) rotate(0 79.65548413270812 48.08856457515981)"><path d="M158.35 97.51 L144.34 94.2 L152.38 82.65 L159.63 97.63" stroke="none" stroke-width="0" fill="#1e1e1e" fill-rule="evenodd"></path><path d="M158.9 96.31 C154.22 95.56, 147.18 96.07, 144 94.66 M158.9 96.31 C153.57 95.63, 147.44 95.04, 144 94.66 M144 94.66 C146.57 91.51, 148.93 85.02, 150.59 83.83 M144 94.66 C145.7 90.81, 148.19 87.32, 150.59 83.83 M150.59 83.83 C151.73 88.38, 155.51 92.44, 158.9 96.31 M150.59 83.83 C152.81 87.11, 155.63 91.41, 158.9 96.31 M158.9 96.31 C158.9 96.31, 158.9 96.31, 158.9 96.31 M158.9 96.31 C158.9 96.31, 158.9 96.31, 158.9 96.31" stroke="#1e1e1e" stroke-width="2" fill="none"></path></g></g><mask></mask><g stroke-linecap="round" transform="translate(405.115234375 189.439453125) rotate(0 60.166015625 25.576171875)"><path d="M12.79 0 C34.65 -0.22, 57.43 -0.17, 107.54 0 M12.79 0 C32.42 -0.96, 51.99 -1.81, 107.54 0 M107.54 0 C116.12 0.2, 118.92 3.75, 120.33 12.79 M107.54 0 C113.97 2.01, 119.56 6.07, 120.33 12.79 M120.33 12.79 C121.22 16.96, 121.7 24.61, 120.33 38.36 M120.33 12.79 C120.31 21.02, 120.62 30.02, 120.33 38.36 M120.33 38.36 C122.24 46.07, 115.86 50.37, 107.54 51.15 M120.33 38.36 C122.5 47.75, 116.28 51.16, 107.54 51.15 M107.54 51.15 C84.72 50.15, 61.11 52.07, 12.79 51.15 M107.54 51.15 C80.57 49.5, 51.57 50.09, 12.79 51.15 M12.79 51.15 C4.33 49.9, -0.98 45.49, 0 38.36 M12.79 51.15 C4.34 52.79, -1.41 44.64, 0 38.36 M0 38.36 C-0.99 29.87, -1.15 17.99, 0 12.79 M0 38.36 C0.14 31.53, -0.01 25.72, 0 12.79 M0 12.79 C-1.23 2.82, 4.43 -0.49, 12.79 0 M0 12.79 C-1.17 4.49, 4.72 1.13, 12.79 0" stroke="#1e1e1e" stroke-width="2" fill="none"></path></g><g transform="translate(423.6812744140625 202.515625) rotate(0 41.5999755859375 12.5)"><text x="41.5999755859375" y="17.619999999999997" font-family="Excalifont, Xiaolai, sans-serif, Segoe UI Emoji" font-size="20px" fill="#1e1e1e" text-anchor="middle" style="white-space: pre;" direction="ltr" dominant-baseline="alphabetic">collector</text></g></svg>