<svg version="1.1" xmlns="http://www.w3.org/2000/svg" viewBox="0 0 907.5686084695393 276.2393190609944" width="2722.705825408618" height="828.7179571829831" filter="invert(93%) hue-rotate(180deg)">
  <!-- svg-source:excalidraw -->
  
  <defs>
    <style class="style-fonts">
      @font-face {
        font-family: "Virgil";
        src: url("https://excalidraw.com/Virgil.woff2");
      }
      @font-face {
        font-family: "Cascadia";
        src: url("https://excalidraw.com/Cascadia.woff2");
      }
      @font-face {
        font-family: "Assistant";
        src: url("https://excalidraw.com/Assistant-Regular.woff2");
      }
    </style>
    
  </defs>
  <g stroke-linecap="round"><g transform="translate(139 224.23931906099435) rotate(0 1.4210854715202004e-14 -106.50000000000001)"><path d="M0.61 0.52 C0.63 -34.87, -0.75 -176.72, -0.81 -212.42 M-0.53 -0.25 C-0.05 -35.99, 1.46 -178.83, 1.47 -214.24" stroke="#1e1e1e" stroke-width="2" fill="none"></path></g><g transform="translate(139 224.23931906099435) rotate(0 1.4210854715202004e-14 -106.50000000000001)"><path d="M9.87 -190.69 C8.88 -197.26, 7.1 -200.84, 1.47 -214.24 M9.87 -190.69 C8.11 -196.14, 5.62 -202.65, 1.47 -214.24" stroke="#1e1e1e" stroke-width="2" fill="none"></path></g><g transform="translate(139 224.23931906099435) rotate(0 1.4210854715202004e-14 -106.50000000000001)"><path d="M-7.23 -190.8 C-4.41 -197.43, -2.37 -200.98, 1.47 -214.24 M-7.23 -190.8 C-4.83 -196.23, -3.15 -202.71, 1.47 -214.24" stroke="#1e1e1e" stroke-width="2" fill="none"></path></g></g><mask></mask><g stroke-linecap="round"><g transform="translate(136 222.23931906099435) rotate(0 147 0)"><path d="M-0.88 0.26 C47.83 0.61, 244.03 0.87, 293.29 0.98 M0.86 -0.66 C49.86 -0.52, 246.73 -0.57, 295.63 -0.63" stroke="#1e1e1e" stroke-width="2" fill="none"></path></g><g transform="translate(136 222.23931906099435) rotate(0 147 0)"><path d="M272.15 7.94 C281.79 3.6, 292.14 2.61, 295.63 -0.63 M272.15 7.94 C280.33 4.81, 288.89 2.28, 295.63 -0.63" stroke="#1e1e1e" stroke-width="2" fill="none"></path></g><g transform="translate(136 222.23931906099435) rotate(0 147 0)"><path d="M272.14 -9.17 C281.62 -6.85, 291.97 -1.18, 295.63 -0.63 M272.14 -9.17 C280.45 -5.89, 289.01 -2.02, 295.63 -0.63" stroke="#1e1e1e" stroke-width="2" fill="none"></path></g></g><mask></mask><g stroke-linecap="round"><g transform="translate(140 120.23931906099435) rotate(0 82.5 -36)"><path d="M-0.54 1.01 C22.95 -0.33, 112.85 3.65, 140.49 -8.67 C168.12 -20.98, 161.08 -62.34, 165.26 -72.88 M1.38 0.5 C24.7 -1.16, 112.06 1.47, 139.27 -10.62 C166.47 -22.7, 160.15 -62, 164.63 -72.03" stroke="#1e1e1e" stroke-width="2" fill="none"></path></g></g><mask></mask><g stroke-linecap="round"><g transform="translate(606.622055205726 226.09935288131712) rotate(0 0 -106.50000000000001)"><path d="M-0.65 0.87 C-0.64 -34.75, 0.12 -177.82, 0.22 -213.45 M1.21 0.28 C1.07 -35.19, -0.28 -176.84, -0.62 -212.15" stroke="#1e1e1e" stroke-width="2" fill="none"></path></g><g transform="translate(606.622055205726 226.09935288131712) rotate(0 0 -106.50000000000001)"><path d="M8.15 -188.74 C6.83 -195.71, 1.9 -203.44, -0.62 -212.15 M8.15 -188.74 C5.02 -196.84, 3.03 -202.52, -0.62 -212.15" stroke="#1e1e1e" stroke-width="2" fill="none"></path></g><g transform="translate(606.622055205726 226.09935288131712) rotate(0 0 -106.50000000000001)"><path d="M-8.95 -188.58 C-4.96 -195.5, -4.56 -203.29, -0.62 -212.15 M-8.95 -188.58 C-6.85 -196.82, -3.6 -202.55, -0.62 -212.15" stroke="#1e1e1e" stroke-width="2" fill="none"></path></g></g><mask></mask><g stroke-linecap="round"><g transform="translate(603.622055205726 224.09935288131712) rotate(0 147 0)"><path d="M0.22 -0.45 C49.32 -0.58, 244.92 -0.12, 293.95 0.07 M-1.13 -1.73 C47.87 -1.73, 243.82 1.57, 292.97 1.65" stroke="#1e1e1e" stroke-width="2" fill="none"></path></g><g transform="translate(603.622055205726 224.09935288131712) rotate(0 147 0)"><path d="M269.39 9.96 C274.37 7.79, 281.04 6.43, 292.97 1.65 M269.39 9.96 C278.17 7.72, 286.07 3.57, 292.97 1.65" stroke="#1e1e1e" stroke-width="2" fill="none"></path></g><g transform="translate(603.622055205726 224.09935288131712) rotate(0 147 0)"><path d="M269.57 -7.14 C274.63 -5.11, 281.25 -2.27, 292.97 1.65 M269.57 -7.14 C278.21 -3.27, 286.06 -1.31, 292.97 1.65" stroke="#1e1e1e" stroke-width="2" fill="none"></path></g></g><mask></mask><g stroke-linecap="round"><g transform="translate(609.622055205726 222.09935288131712) rotate(0 81.5 -54.5)"><path d="M-0.05 0.07 C23.14 -17.9, 112.26 -103.6, 139.36 -108.31 C166.46 -113.02, 158.54 -41.83, 162.55 -28.18 M-1.54 -0.93 C21.5 -19.22, 111.41 -105.65, 138.59 -110.07 C165.77 -114.5, 157.34 -41.05, 161.54 -27.48" stroke="#1e1e1e" stroke-width="2" fill="none"></path></g></g><mask></mask><g transform="translate(10 113.23931906099435) rotate(0 46.875 24)"><text x="0" y="19.3125" font-family="Cascadia, Segoe UI Emoji" font-size="20px" fill="#1e1e1e" text-anchor="start" style="white-space: pre;" direction="ltr" dominant-baseline="alphabetic">Response</text><text x="0" y="43.3125" font-family="Cascadia, Segoe UI Emoji" font-size="20px" fill="#1e1e1e" text-anchor="start" style="white-space: pre;" direction="ltr" dominant-baseline="alphabetic">  Time</text></g><g transform="translate(470.125 112.23931906099435) rotate(0 58.59375 12)"><text x="0" y="19.3125" font-family="Cascadia, Segoe UI Emoji" font-size="20px" fill="#1e1e1e" text-anchor="start" style="white-space: pre;" direction="ltr" dominant-baseline="alphabetic">Throughput</text></g><g transform="translate(244.40625 242.23931906099435) rotate(0 23.4375 12)"><text x="0" y="19.3125" font-family="Cascadia, Segoe UI Emoji" font-size="20px" fill="#1e1e1e" text-anchor="start" style="white-space: pre;" direction="ltr" dominant-baseline="alphabetic">Load</text></g><g transform="translate(724.5625 242.23931906099435) rotate(0 23.4375 12)"><text x="0" y="19.3125" font-family="Cascadia, Segoe UI Emoji" font-size="20px" fill="#1e1e1e" text-anchor="start" style="white-space: pre;" direction="ltr" dominant-baseline="alphabetic">Load</text></g><g stroke-linecap="round"><g transform="translate(285 108.23931906099435) rotate(0 0 55.5)"><path d="M0.36 0.9 C0.15 19.48, -0.61 92.24, -0.48 110.74" stroke="#2f9e44" stroke-width="1.5" fill="none" stroke-dasharray="1.5 7"></path></g></g><mask></mask><g stroke-linecap="round"><g transform="translate(750 112.23931906099435) rotate(0 0 53.5)"><path d="M1.05 -0.55 C0.95 17, 0.87 87.89, 0.54 105.92" stroke="#2f9e44" stroke-width="1.5" fill="none" stroke-dasharray="1.5 7"></path></g></g><mask></mask></svg>