<svg version="1.1" xmlns="http://www.w3.org/2000/svg" viewBox="0 0 1329.3125 600.25" width="3987.9375" height="1800.75" filter="invert(93%) hue-rotate(180deg)">
  <!-- svg-source:excalidraw -->
  
  <defs>
    <style class="style-fonts">
      @font-face {
        font-family: "Virgil";
        src: url("https://excalidraw.com/Virgil.woff2");
      }
      @font-face {
        font-family: "Cascadia";
        src: url("https://excalidraw.com/Cascadia.woff2");
      }
      @font-face {
        font-family: "Assistant";
        src: url("https://excalidraw.com/Assistant-Regular.woff2");
      }
    </style>
    
  </defs>
  <g stroke-linecap="round" transform="translate(35.55886024851816 76.40552048887594) rotate(0 11 11.5)"><path d="M11.95 0.24 C14.22 0.37, 17.14 1.53, 18.86 3.3 C20.57 5.06, 22.16 8.34, 22.25 10.82 C22.34 13.29, 20.76 16.22, 19.41 18.16 C18.05 20.11, 16.39 21.96, 14.13 22.5 C11.87 23.04, 8.08 22.52, 5.85 21.4 C3.63 20.29, 1.63 17.91, 0.8 15.8 C-0.04 13.69, 0.16 11.01, 0.86 8.75 C1.56 6.48, 3.16 3.61, 5.01 2.19 C6.85 0.77, 10.6 0.52, 11.93 0.21 C13.27 -0.09, 12.88 0.1, 13.01 0.34 M9.66 -0.42 C11.89 -0.9, 14.89 0.72, 16.77 2.09 C18.65 3.47, 20.16 5.62, 20.92 7.82 C21.69 10.03, 22.19 13, 21.36 15.33 C20.53 17.67, 18.08 20.6, 15.95 21.82 C13.82 23.03, 10.91 23.29, 8.59 22.62 C6.27 21.95, 3.35 19.63, 2.02 17.78 C0.69 15.94, 0.46 13.98, 0.63 11.57 C0.81 9.15, 1.65 5.22, 3.07 3.29 C4.49 1.36, 7.96 0.44, 9.16 -0.01 C10.36 -0.46, 10.21 0.39, 10.25 0.6" stroke="#1e1e1e" stroke-width="2" fill="none"></path></g><g stroke-linecap="round"><g transform="translate(45.55886024851816 97.40552048887594) rotate(0 0 24.5)"><path d="M0.23 -0.26 C0.23 7.91, -0.5 40.59, -0.5 48.79 M-0.32 0.79 C-0.11 9.06, 0.43 41.26, 0.47 49.39" stroke="#1e1e1e" stroke-width="2" fill="none"></path></g></g><mask></mask><g stroke-linecap="round"><g transform="translate(45.55886024851816 147.40552048887594) rotate(0 -7.5 9)"><path d="M-1.1 -0.45 C-3.61 2.62, -12.18 14.7, -14.58 17.89 M0.53 -1.74 C-2.15 1.59, -12.47 16.29, -15.31 19.36" stroke="#1e1e1e" stroke-width="2" fill="none"></path></g></g><mask></mask><g stroke-linecap="round"><g transform="translate(46.55886024851816 153.40552048887594) rotate(0 8 8.5)"><path d="M0.42 -0.11 C3.18 2.91, 12.85 15.02, 15.5 17.67 M-0.82 -1.22 C1.84 1.49, 11.54 12.95, 14.29 15.91" stroke="#1e1e1e" stroke-width="2" fill="none"></path></g></g><mask></mask><g stroke-linecap="round"><g transform="translate(46.55886024851816 118.40552048887594) rotate(0 8 7.5)"><path d="M-0.5 0.67 C2.15 2.99, 13.6 11.23, 16.31 13.8 M1.44 -0.02 C3.92 2.41, 13.28 12.32, 15.53 14.71" stroke="#1e1e1e" stroke-width="2" fill="none"></path></g></g><mask></mask><g stroke-linecap="round"><g transform="translate(44.55886024851816 118.40552048887594) rotate(0 -8 8)"><path d="M0.31 -1.2 C-2.31 1.54, -13.42 14.37, -16.2 17.1 M-0.98 0.79 C-3.73 3.16, -14.53 13, -17.26 15.55" stroke="#1e1e1e" stroke-width="2" fill="none"></path></g></g><mask></mask><g stroke-linecap="round" transform="translate(563.1460021165245 79.35035292990506) rotate(0 11 11.5)"><path d="M10.77 -0.12 C12.93 -0.26, 15.78 1.11, 17.56 2.65 C19.34 4.19, 21.03 6.79, 21.47 9.14 C21.92 11.48, 21.33 14.58, 20.23 16.7 C19.13 18.83, 17 20.9, 14.89 21.88 C12.78 22.87, 9.86 23.27, 7.58 22.6 C5.29 21.93, 2.49 19.91, 1.18 17.86 C-0.12 15.81, -0.74 12.84, -0.26 10.32 C0.22 7.8, 2.19 4.49, 4.07 2.75 C5.95 1.01, 9.64 0.31, 11.01 -0.11 C12.37 -0.53, 12.23 0.04, 12.23 0.22 M11.74 -0.3 C14.07 -0.42, 17.6 1.11, 19.36 2.85 C21.11 4.6, 22.18 7.77, 22.29 10.18 C22.39 12.59, 21.42 15.35, 19.99 17.31 C18.56 19.27, 15.9 21.09, 13.69 21.95 C11.49 22.8, 8.85 23.47, 6.77 22.45 C4.69 21.42, 2.38 18.21, 1.21 15.79 C0.04 13.38, -0.71 10.23, -0.23 7.93 C0.24 5.63, 1.99 3.39, 4.08 2 C6.17 0.61, 10.9 -0.2, 12.3 -0.41 C13.69 -0.61, 12.5 0.38, 12.44 0.76" stroke="#1e1e1e" stroke-width="2" fill="none"></path></g><g stroke-linecap="round"><g transform="translate(573.1460021165245 100.35035292990506) rotate(0 0 24.5)"><path d="M-0.06 0.19 C-0.09 8.29, -0.3 41, -0.31 49.09 M-0.76 -0.18 C-0.6 7.97, 0.73 39.95, 0.76 48.17" stroke="#1e1e1e" stroke-width="2" fill="none"></path></g></g><mask></mask><g stroke-linecap="round"><g transform="translate(573.1460021165245 150.35035292990506) rotate(0 -7.5 9)"><path d="M-0.68 0.19 C-3.21 3.01, -12.98 14.5, -15.3 17.35 M1.16 -0.75 C-1.54 2.18, -13.69 15.39, -16.41 18.55" stroke="#1e1e1e" stroke-width="2" fill="none"></path></g></g><mask></mask><g stroke-linecap="round"><g transform="translate(574.1460021165245 156.35035292990506) rotate(0 8 8.5)"><path d="M-0.3 -0.65 C2.54 2.03, 13.7 13.51, 16.4 16.27 M1.74 1.62 C4.52 4.43, 13.43 14.91, 15.66 17.42" stroke="#1e1e1e" stroke-width="2" fill="none"></path></g></g><mask></mask><g stroke-linecap="round"><g transform="translate(574.1460021165245 121.35035292990506) rotate(0 8 7.5)"><path d="M0.4 -0.73 C3.09 1.7, 13.39 11.37, 15.89 13.92 M-0.86 1.5 C1.7 4.1, 12.36 12.52, 14.88 14.9" stroke="#1e1e1e" stroke-width="2" fill="none"></path></g></g><mask></mask><g stroke-linecap="round"><g transform="translate(572.1460021165245 121.35035292990506) rotate(0 -8 8)"><path d="M-0.11 -1.08 C-2.95 1.65, -13.86 12.75, -16.63 15.62 M-1.63 0.97 C-4.11 3.93, -12.15 14.2, -14.25 16.95" stroke="#1e1e1e" stroke-width="2" fill="none"></path></g></g><mask></mask><g stroke-linecap="round" transform="translate(224.15625 80.75) rotate(0 89.5 33.5)"><path d="M16.75 0 C67.32 2.7, 117.42 2.77, 162.25 0 M16.75 0 C48.87 0.84, 79.58 1.03, 162.25 0 M162.25 0 C173.35 -0.79, 179.78 5.13, 179 16.75 M162.25 0 C174.28 -1.51, 179.93 5.45, 179 16.75 M179 16.75 C180.67 30.73, 179.79 40.52, 179 50.25 M179 16.75 C180.05 24.57, 179.4 32.91, 179 50.25 M179 50.25 C180.73 60.78, 172.33 68.65, 162.25 67 M179 50.25 C179.33 59.5, 172.09 66.38, 162.25 67 M162.25 67 C130.03 67.53, 98.36 67.31, 16.75 67 M162.25 67 C107.49 68.63, 53.09 68.81, 16.75 67 M16.75 67 C4.65 68.63, -1.69 61.54, 0 50.25 M16.75 67 C6.33 66.65, 0.26 59.2, 0 50.25 M0 50.25 C0.8 36.86, -1.41 24.28, 0 16.75 M0 50.25 C-0.98 37, -0.08 24.31, 0 16.75 M0 16.75 C1.63 7.13, 4.34 0.7, 16.75 0 M0 16.75 C0.12 5.98, 3.38 -1.44, 16.75 0" stroke="#1e1e1e" stroke-width="2" fill="none"></path></g><g transform="translate(255.0625 90.25) rotate(0 58.59375 24)"><text x="58.59375" y="19.3125" font-family="Cascadia, Segoe UI Emoji" font-size="20px" fill="#1e1e1e" text-anchor="middle" style="white-space: pre;" direction="ltr" dominant-baseline="alphabetic">Hitchikers</text><text x="58.59375" y="43.3125" font-family="Cascadia, Segoe UI Emoji" font-size="20px" fill="#1e1e1e" text-anchor="middle" style="white-space: pre;" direction="ltr" dominant-baseline="alphabetic">Service</text></g><g stroke-linecap="round"><g transform="translate(44.15625 159.75) rotate(0 0.5 209.5)"><path d="M-0.37 -0.07 C-0.24 69.87, 1.31 348.8, 1.55 418.76 M1.63 -1.16 C1.59 69.05, 1.1 350.36, 0.88 420.18" stroke="#1e1e1e" stroke-width="2" fill="none"></path></g></g><mask></mask><g stroke-linecap="round"><g transform="translate(575.3995090988744 163.23996176640503) rotate(0 2.5 205.5)"><path d="M0.09 0.2 C1.03 68.51, 3.87 341.52, 4.84 410.13 M-1.32 -0.74 C-0.49 67.68, 2.65 342.75, 3.81 411.2" stroke="#1e1e1e" stroke-width="2" fill="none"></path></g></g><mask></mask><g stroke-linecap="round"><g transform="translate(315.39950909887443 152.23996176640503) rotate(0 0 214)"><path d="M-0.7 -0.27 C-0.61 70.84, -0.09 355.38, 0.07 426.87 M1.13 -1.46 C1.12 69.74, -0.58 356.46, -0.84 427.81" stroke="#1e1e1e" stroke-width="2" fill="none"></path></g></g><mask></mask><g mask="url(#mask-Vcwii2qNDkipOWQe6US6E)" stroke-linecap="round"><g transform="translate(574.15625 184.75) rotate(0 -127 0)"><path d="M0.33 0 C-41.82 0.07, -211.36 0.64, -253.76 0.71 M-0.96 -1.05 C-43.17 -1.34, -212.26 -0.94, -254.59 -1.04" stroke="#1e1e1e" stroke-width="2" fill="none"></path></g><g transform="translate(574.15625 184.75) rotate(0 -127 0)"><path d="M-231.09 -9.6 C-236.45 -7.18, -240.63 -5.76, -254.59 -1.04 M-231.09 -9.6 C-239.96 -6.38, -246.85 -3.42, -254.59 -1.04" stroke="#1e1e1e" stroke-width="2" fill="none"></path></g><g transform="translate(574.15625 184.75) rotate(0 -127 0)"><path d="M-231.09 7.5 C-236.48 6.01, -240.67 3.53, -254.59 -1.04 M-231.09 7.5 C-239.94 4.99, -246.83 2.22, -254.59 -1.04" stroke="#1e1e1e" stroke-width="2" fill="none"></path></g></g><mask id="mask-Vcwii2qNDkipOWQe6US6E"><rect x="0" y="0" fill="#fff" width="928.15625" height="284.75"></rect><rect x="400.28125" y="160.75" fill="#000" width="93.75" height="48" opacity="1"></rect></mask><g transform="translate(400.28125 160.75) rotate(0 46.745003648973125 23.77519005683422)"><text x="46.875" y="19.3125" font-family="Cascadia, Segoe UI Emoji" font-size="20px" fill="#1e1e1e" text-anchor="middle" style="white-space: pre;" direction="ltr" dominant-baseline="alphabetic">Ready to</text><text x="46.875" y="43.3125" font-family="Cascadia, Segoe UI Emoji" font-size="20px" fill="#1e1e1e" text-anchor="middle" style="white-space: pre;" direction="ltr" dominant-baseline="alphabetic">Pickup</text></g><g mask="url(#mask-9vDRefa5U4AEbvUOa74CG)" stroke-linecap="round"><g transform="translate(50.286246351026875 228.97480994316584) rotate(0 131 -0.5)"><path d="M0.69 -0.36 C44.14 -0.54, 218.21 0.09, 261.68 0.02 M-0.41 -1.59 C42.78 -1.57, 217.08 -1.95, 260.56 -1.57" stroke="#1e1e1e" stroke-width="2" fill="none"></path></g><g transform="translate(50.286246351026875 228.97480994316584) rotate(0 131 -0.5)"><path d="M237.05 6.92 C245.26 3.05, 256.44 -0.47, 260.56 -1.57 M237.05 6.92 C245.05 3.88, 251.88 0.66, 260.56 -1.57" stroke="#1e1e1e" stroke-width="2" fill="none"></path></g><g transform="translate(50.286246351026875 228.97480994316584) rotate(0 131 -0.5)"><path d="M237.09 -10.18 C245.44 -7.59, 256.61 -4.65, 260.56 -1.57 M237.09 -10.18 C245.04 -7.73, 251.86 -5.47, 260.56 -1.57" stroke="#1e1e1e" stroke-width="2" fill="none"></path></g></g><mask id="mask-9vDRefa5U4AEbvUOa74CG"><rect x="0" y="0" fill="#fff" width="412.2862463510269" height="329.97480994316584"></rect><rect x="140.27062135102688" y="204.47480994316584" fill="#000" width="82.03125" height="48" opacity="1"></rect></mask><g transform="translate(140.27062135102688 204.47480994316584) rotate(0 40.64956949736458 23.643155643866095)"><text x="41.015625" y="19.3125" font-family="Cascadia, Segoe UI Emoji" font-size="20px" fill="#1e1e1e" text-anchor="middle" style="white-space: pre;" direction="ltr" dominant-baseline="alphabetic">Request</text><text x="41.015625" y="43.3125" font-family="Cascadia, Segoe UI Emoji" font-size="20px" fill="#1e1e1e" text-anchor="middle" style="white-space: pre;" direction="ltr" dominant-baseline="alphabetic">Ride</text></g><g mask="url(#mask-7CJ7ilsEAyD9scEwqssge)" stroke-linecap="round"><g transform="translate(306.15625 278.75) rotate(0 -26.5 57.5)"><path d="M0.92 -0.06 C-9.46 10.41, -64 44.72, -62.45 63.97 C-60.9 83.22, -1.96 107.06, 10.22 115.42 M-0.05 -1.14 C-10.53 9.53, -64.72 43.28, -63.12 62.36 C-61.51 81.43, -2.82 104.56, 9.58 113.31" stroke="#1e1e1e" stroke-width="2" fill="none"></path></g><g transform="translate(306.15625 278.75) rotate(0 -26.5 57.5)"><path d="M-15.16 109.68 C-8.09 111.44, 0.76 111.95, 9.58 113.31 M-15.16 109.68 C-6.27 111.24, 2.14 111.53, 9.58 113.31" stroke="#1e1e1e" stroke-width="2" fill="none"></path></g><g transform="translate(306.15625 278.75) rotate(0 -26.5 57.5)"><path d="M-7.04 94.63 C-2.17 100.79, 4.34 105.65, 9.58 113.31 M-7.04 94.63 C-0.79 101.18, 4.9 106.51, 9.58 113.31" stroke="#1e1e1e" stroke-width="2" fill="none"></path></g></g><mask id="mask-7CJ7ilsEAyD9scEwqssge"><rect x="0" y="0" fill="#fff" width="479.15625" height="493.75"></rect><rect x="213.859375" y="329.75" fill="#000" width="58.59375" height="24" opacity="1"></rect></mask><g transform="translate(213.859375 329.75) rotate(0 65.83353213561918 6.144463725187819)"><text x="29.296875" y="19.3125" font-family="Cascadia, Segoe UI Emoji" font-size="20px" fill="#1e1e1e" text-anchor="middle" style="white-space: pre;" direction="ltr" dominant-baseline="alphabetic">Match</text></g><g mask="url(#mask-IuRfraODVptK8RaA0gCS2)" stroke-linecap="round"><g transform="translate(315.15625 419.75) rotate(0 130.5 0.5)"><path d="M0.21 0.41 C43.81 0.65, 218.38 1.03, 262.01 0.96 M-1.13 -0.43 C42.35 0.06, 217.78 2.27, 261.59 2.47" stroke="#1e1e1e" stroke-width="2" fill="none"></path></g><g transform="translate(315.15625 419.75) rotate(0 130.5 0.5)"><path d="M238.02 10.81 C246.65 9.65, 253.81 6.77, 261.59 2.47 M238.02 10.81 C243.16 9.78, 247.95 6.74, 261.59 2.47" stroke="#1e1e1e" stroke-width="2" fill="none"></path></g><g transform="translate(315.15625 419.75) rotate(0 130.5 0.5)"><path d="M238.18 -6.29 C246.68 -1.71, 253.79 1.16, 261.59 2.47 M238.18 -6.29 C243.37 -3.63, 248.12 -2.99, 261.59 2.47" stroke="#1e1e1e" stroke-width="2" fill="none"></path></g></g><mask id="mask-IuRfraODVptK8RaA0gCS2"><rect x="0" y="0" fill="#fff" width="676.15625" height="520.75"></rect><rect x="410.5" y="408.25" fill="#000" width="70.3125" height="24" opacity="1"></rect></mask><g transform="translate(410.5 408.25) rotate(0 35.09290276761635 12.523108831280808)"><text x="35.15625" y="19.3125" font-family="Cascadia, Segoe UI Emoji" font-size="20px" fill="#1e1e1e" text-anchor="middle" style="white-space: pre;" direction="ltr" dominant-baseline="alphabetic">Notify</text></g><g mask="url(#mask-bc8m9-a9EWJXhP9CZmwkn)" stroke-linecap="round"><g transform="translate(311.71959723238365 419.72689116871913) rotate(0 -131 1)"><path d="M-0.97 0.45 C-44.66 0.76, -217.4 1.36, -260.92 1.73 M0.71 -0.35 C-43.14 0.14, -217.37 2.95, -261.3 3.13" stroke="#1e1e1e" stroke-width="2" fill="none"></path></g><g transform="translate(311.71959723238365 419.72689116871913) rotate(0 -131 1)"><path d="M-237.9 -5.68 C-246.5 -0.55, -257.06 1.03, -261.3 3.13 M-237.9 -5.68 C-246.27 -1.84, -253.93 1.44, -261.3 3.13" stroke="#1e1e1e" stroke-width="2" fill="none"></path></g><g transform="translate(311.71959723238365 419.72689116871913) rotate(0 -131 1)"><path d="M-237.72 11.42 C-246.38 9.71, -257.01 4.46, -261.3 3.13 M-237.72 11.42 C-246.16 9.13, -253.88 6.29, -261.3 3.13" stroke="#1e1e1e" stroke-width="2" fill="none"></path></g></g><mask id="mask-bc8m9-a9EWJXhP9CZmwkn"><rect x="0" y="0" fill="#fff" width="673.7195972323836" height="521.7268911687191"></rect><rect x="145.56334723238365" y="408.72689116871913" fill="#000" width="70.3125" height="24" opacity="1"></rect></mask><g transform="translate(145.56334723238365 408.72689116871913) rotate(0 35.86367654289117 12.386651900606182)"><text x="35.15625" y="19.3125" font-family="Cascadia, Segoe UI Emoji" font-size="20px" fill="#1e1e1e" text-anchor="middle" style="white-space: pre;" direction="ltr" dominant-baseline="alphabetic">Notify</text></g><g mask="url(#mask-sIWYQg5q60-uTt2ho2SyA)" stroke-linecap="round"><g transform="translate(578.15625 516.75) rotate(0 -132 -0.5)"><path d="M-0.49 -0.68 C-44.41 -1.13, -219.94 -1.88, -264.06 -1.91 M1.45 1.58 C-42.59 1.18, -220.98 -0.68, -265.04 -0.85" stroke="#1e1e1e" stroke-width="2" fill="none"></path></g><g transform="translate(578.15625 516.75) rotate(0 -132 -0.5)"><path d="M-241.48 -9.22 C-248.59 -7.28, -255.03 -7.02, -265.04 -0.85 M-241.48 -9.22 C-248.48 -5.91, -256.05 -4.2, -265.04 -0.85" stroke="#1e1e1e" stroke-width="2" fill="none"></path></g><g transform="translate(578.15625 516.75) rotate(0 -132 -0.5)"><path d="M-241.61 7.88 C-248.81 5.44, -255.21 1.31, -265.04 -0.85 M-241.61 7.88 C-248.71 5.84, -256.24 2.18, -265.04 -0.85" stroke="#1e1e1e" stroke-width="2" fill="none"></path></g></g><mask id="mask-sIWYQg5q60-uTt2ho2SyA"><rect x="0" y="0" fill="#fff" width="942.15625" height="617.75"></rect><rect x="416.859375" y="492.25" fill="#000" width="58.59375" height="48" opacity="1"></rect></mask><g transform="translate(416.859375 492.25) rotate(0 29.50202913011418 24.335734972455498)"><text x="29.296875" y="19.3125" font-family="Cascadia, Segoe UI Emoji" font-size="20px" fill="#1e1e1e" text-anchor="middle" style="white-space: pre;" direction="ltr" dominant-baseline="alphabetic">Start</text><text x="29.296875" y="43.3125" font-family="Cascadia, Segoe UI Emoji" font-size="20px" fill="#1e1e1e" text-anchor="middle" style="white-space: pre;" direction="ltr" dominant-baseline="alphabetic">Ride</text></g><g mask="url(#mask-YgFiuY3t1tM920rF3PQKD)" stroke-linecap="round"><g transform="translate(312.15625 565.75) rotate(0 -132 0.5)"><path d="M0.6 0.52 C-43.11 0.52, -219.29 -0.09, -263.35 0.14 M-0.54 -0.26 C-44.26 -0.14, -219.98 1.18, -263.96 1.22" stroke="#1e1e1e" stroke-width="2" fill="none"></path></g><g transform="translate(312.15625 565.75) rotate(0 -132 0.5)"><path d="M-240.5 -7.44 C-244.56 -4.41, -251.79 -3.3, -263.96 1.22 M-240.5 -7.44 C-249.6 -4.96, -258.1 -0.93, -263.96 1.22" stroke="#1e1e1e" stroke-width="2" fill="none"></path></g><g transform="translate(312.15625 565.75) rotate(0 -132 0.5)"><path d="M-240.42 9.66 C-244.52 9.09, -251.77 6.61, -263.96 1.22 M-240.42 9.66 C-249.7 5.77, -258.23 3.41, -263.96 1.22" stroke="#1e1e1e" stroke-width="2" fill="none"></path></g></g><mask id="mask-YgFiuY3t1tM920rF3PQKD"><rect x="0" y="0" fill="#fff" width="676.15625" height="666.75"></rect><rect x="139.140625" y="542.25" fill="#000" width="82.03125" height="48" opacity="1"></rect></mask><g transform="translate(139.140625 542.25) rotate(0 41.3379466882115 23.983277405099898)"><text x="41.015625" y="19.3125" font-family="Cascadia, Segoe UI Emoji" font-size="20px" fill="#1e1e1e" text-anchor="middle" style="white-space: pre;" direction="ltr" dominant-baseline="alphabetic">Ride</text><text x="41.015625" y="43.3125" font-family="Cascadia, Segoe UI Emoji" font-size="20px" fill="#1e1e1e" text-anchor="middle" style="white-space: pre;" direction="ltr" dominant-baseline="alphabetic">Started</text></g><g transform="translate(224.15625 12.75) rotate(0 87.890625 12)"><text x="0" y="19.3125" font-family="Cascadia, Segoe UI Emoji" font-size="20px" fill="#1e1e1e" text-anchor="start" style="white-space: pre;" direction="ltr" dominant-baseline="alphabetic">Ride Initiation</text></g><g stroke-linecap="round" transform="translate(752.7941565477618 73.65552048887594) rotate(0 11 11.5)"><path d="M13.64 0.49 C15.77 1, 18.57 2.96, 19.9 4.87 C21.22 6.78, 21.75 9.53, 21.59 11.93 C21.44 14.33, 20.52 17.48, 18.97 19.27 C17.41 21.06, 14.66 22.44, 12.26 22.67 C9.87 22.9, 6.64 21.89, 4.59 20.63 C2.54 19.36, 0.52 17.36, -0.04 15.1 C-0.59 12.83, 0.29 9.38, 1.26 7.01 C2.22 4.64, 3.61 2.03, 5.76 0.88 C7.9 -0.28, 12.77 0.03, 14.11 0.08 C15.46 0.14, 13.91 0.89, 13.84 1.2 M10.11 -0.73 C12.46 -0.95, 15.95 0.44, 17.87 2.08 C19.78 3.73, 21.16 6.59, 21.59 9.15 C22.03 11.7, 21.5 15.29, 20.49 17.41 C19.47 19.53, 17.66 21.01, 15.51 21.88 C13.36 22.75, 9.79 23.32, 7.6 22.62 C5.41 21.92, 3.73 19.78, 2.36 17.68 C1 15.57, -0.69 12.5, -0.57 9.97 C-0.46 7.44, 1.08 4.09, 3.06 2.5 C5.04 0.91, 9.97 0.73, 11.31 0.44 C12.66 0.14, 11.27 0.57, 11.1 0.72" stroke="#1e1e1e" stroke-width="2" fill="none"></path></g><g stroke-linecap="round"><g transform="translate(762.7941565477618 94.65552048887594) rotate(0 0 24.5)"><path d="M0.55 0.45 C0.51 8.63, -0.36 40.84, -0.42 48.93 M0.16 0.2 C0.31 8.49, 0.64 41.36, 0.6 49.59" stroke="#1e1e1e" stroke-width="2" fill="none"></path></g></g><mask></mask><g stroke-linecap="round"><g transform="translate(762.7941565477618 144.65552048887594) rotate(0 -7.5 9)"><path d="M-0.92 -0.16 C-3.57 2.67, -12.37 15.05, -14.68 17.93 M0.8 -1.29 C-2.08 1.65, -12.75 16.22, -15.46 19.42" stroke="#1e1e1e" stroke-width="2" fill="none"></path></g></g><mask></mask><g stroke-linecap="round"><g transform="translate(763.7941565477618 150.65552048887594) rotate(0 8 8.5)"><path d="M0.32 -0.07 C3.18 2.64, 13.77 13.22, 16.21 16.1 M-0.97 -1.16 C1.83 1.69, 12.32 13.86, 15.38 17.16" stroke="#1e1e1e" stroke-width="2" fill="none"></path></g></g><mask></mask><g stroke-linecap="round"><g transform="translate(763.7941565477618 115.65552048887594) rotate(0 8 7.5)"><path d="M0.21 -0.9 C2.66 1.65, 12.47 12.5, 15 15.21 M-1.14 1.24 C1.65 3.4, 14.61 11.2, 17.18 13.2" stroke="#1e1e1e" stroke-width="2" fill="none"></path></g></g><mask></mask><g stroke-linecap="round"><g transform="translate(761.7941565477618 115.65552048887594) rotate(0 -8 8)"><path d="M-1 0.21 C-3.8 3.09, -13.99 13.84, -16.6 16.38 M0.67 -0.72 C-1.75 1.86, -11.13 11.59, -14.2 14.46" stroke="#1e1e1e" stroke-width="2" fill="none"></path></g></g><mask></mask><g stroke-linecap="round" transform="translate(1280.381298415768 76.60035292990506) rotate(0 11 11.5)"><path d="M9.06 0.58 C11.34 0.22, 15.16 0.81, 17.15 2.01 C19.14 3.2, 20.32 5.47, 21.01 7.72 C21.7 9.97, 22.17 13.09, 21.29 15.49 C20.41 17.89, 17.84 20.85, 15.72 22.12 C13.61 23.4, 10.86 23.83, 8.62 23.16 C6.37 22.49, 3.72 20.19, 2.25 18.11 C0.77 16.03, -0.25 13.07, -0.23 10.69 C-0.21 8.3, 0.71 5.61, 2.36 3.82 C4.01 2.02, 8.33 0.56, 9.66 -0.06 C10.99 -0.68, 10.23 -0.14, 10.34 0.11 M10.62 0.18 C12.72 -0.21, 14.79 0.82, 16.51 2.12 C18.24 3.42, 20.12 5.54, 20.98 7.96 C21.84 10.39, 22.47 14.27, 21.68 16.67 C20.88 19.07, 18.5 21.33, 16.21 22.35 C13.91 23.38, 10.33 23.45, 7.91 22.82 C5.49 22.2, 3.12 20.59, 1.69 18.6 C0.27 16.61, -0.8 13.5, -0.65 10.88 C-0.49 8.26, 0.9 4.61, 2.63 2.87 C4.36 1.13, 8.48 0.81, 9.75 0.43 C11.03 0.04, 10.28 0.32, 10.29 0.56" stroke="#1e1e1e" stroke-width="2" fill="none"></path></g><g stroke-linecap="round"><g transform="translate(1290.381298415768 97.60035292990506) rotate(0 0 24.5)"><path d="M-0.3 -0.24 C-0.32 7.81, -0.55 40.24, -0.42 48.5 M0.55 0.82 C0.72 8.91, 0.62 41.02, 0.6 48.95" stroke="#1e1e1e" stroke-width="2" fill="none"></path></g></g><mask></mask><g stroke-linecap="round"><g transform="translate(1290.381298415768 147.60035292990506) rotate(0 -7.5 9)"><path d="M-0.91 -1.08 C-3.11 2.12, -11.61 15.7, -13.86 18.69 M0.81 0.97 C-1.39 3.87, -11.6 14.16, -14.22 16.93" stroke="#1e1e1e" stroke-width="2" fill="none"></path></g></g><mask></mask><g stroke-linecap="round"><g transform="translate(1291.381298415768 153.60035292990506) rotate(0 8 8.5)"><path d="M1.14 0.69 C4.05 3.52, 14.19 13.13, 16.57 15.89 M0.27 0.01 C3.16 3.04, 13.58 13.72, 15.92 16.84" stroke="#1e1e1e" stroke-width="2" fill="none"></path></g></g><mask></mask><g stroke-linecap="round"><g transform="translate(1291.381298415768 118.60035292990506) rotate(0 8 7.5)"><path d="M0.57 -1.11 C2.94 1.31, 12.94 12.72, 15.37 15.25 M-0.6 0.92 C2.07 2.9, 14.71 10.94, 17.75 13.26" stroke="#1e1e1e" stroke-width="2" fill="none"></path></g></g><mask></mask><g stroke-linecap="round"><g transform="translate(1289.381298415768 118.60035292990506) rotate(0 -8 8)"><path d="M-0.63 0.25 C-3.54 2.94, -14.47 12.43, -16.85 15.03 M1.24 -0.67 C-1.34 2.24, -11.86 13.09, -14.58 16.06" stroke="#1e1e1e" stroke-width="2" fill="none"></path></g></g><mask></mask><g stroke-linecap="round" transform="translate(941.3915462992436 78) rotate(0 89.5 33.5)"><path d="M16.75 0 C51.1 2.83, 88.47 2.7, 162.25 0 M16.75 0 C57.87 -0.28, 100.55 0.18, 162.25 0 M162.25 0 C172.95 -0.02, 178.45 6.84, 179 16.75 M162.25 0 C174.75 -0.91, 179.12 6.18, 179 16.75 M179 16.75 C179.37 28.36, 177.92 44.98, 179 50.25 M179 16.75 C178.7 28.97, 178.7 41.24, 179 50.25 M179 50.25 C177.19 62.06, 172.08 65.41, 162.25 67 M179 50.25 C178.52 62.56, 174.52 67.83, 162.25 67 M162.25 67 C119.97 66.1, 81.47 66.65, 16.75 67 M162.25 67 C118.55 64.75, 75.7 65.28, 16.75 67 M16.75 67 C6.83 66.67, -1.44 60.25, 0 50.25 M16.75 67 C7.11 65.46, -1.18 59.43, 0 50.25 M0 50.25 C-0.67 41.16, -0.59 27.8, 0 16.75 M0 50.25 C0.15 38.09, 1.17 26.89, 0 16.75 M0 16.75 C1.26 6.56, 7.22 1.17, 16.75 0 M0 16.75 C0.51 7.87, 7.21 -1.81, 16.75 0" stroke="#1e1e1e" stroke-width="2" fill="none"></path></g><g transform="translate(972.2977962992436 87.5) rotate(0 58.59375 24)"><text x="58.59375" y="19.3125" font-family="Cascadia, Segoe UI Emoji" font-size="20px" fill="#1e1e1e" text-anchor="middle" style="white-space: pre;" direction="ltr" dominant-baseline="alphabetic">Hitchikers</text><text x="58.59375" y="43.3125" font-family="Cascadia, Segoe UI Emoji" font-size="20px" fill="#1e1e1e" text-anchor="middle" style="white-space: pre;" direction="ltr" dominant-baseline="alphabetic">Service</text></g><g stroke-linecap="round"><g transform="translate(761.3915462992436 157) rotate(0 0.5 209.5)"><path d="M1 -0.15 C0.81 69.61, 0.1 348.76, -0.05 418.43 M0.06 -1.27 C0.14 68.66, 1.7 349.7, 2.11 419.66" stroke="#1e1e1e" stroke-width="2" fill="none"></path></g></g><mask></mask><g stroke-linecap="round"><g transform="translate(1292.6348053981178 160.48996176640503) rotate(0 2.5 205.5)"><path d="M-1.05 -0.57 C-0.53 67.76, 3.09 341.33, 4.11 409.83 M0.6 1.74 C1.41 70.18, 5.73 342.48, 6.36 410.75" stroke="#1e1e1e" stroke-width="2" fill="none"></path></g></g><mask></mask><g stroke-linecap="round"><g transform="translate(1032.6348053981178 149.48996176640503) rotate(0 0 214)"><path d="M-0.89 -1.17 C-0.7 70.15, 0 355.86, 0.1 427.39 M0.84 0.83 C0.98 72.35, -0.46 357.19, -0.8 428.6" stroke="#1e1e1e" stroke-width="2" fill="none"></path></g></g><mask></mask><g mask="url(#mask-LLFDeW5JLaIjVX8y8-XD_)" stroke-linecap="round"><g transform="translate(1291.3915462992436 182) rotate(0 -127 0)"><path d="M0.1 -0.61 C-42.13 -0.42, -211.88 -0.24, -254.28 -0.01 M-1.31 1.68 C-43.65 2.18, -213.05 2, -255.38 1.52" stroke="#1e1e1e" stroke-width="2" fill="none"></path></g><g transform="translate(1291.3915462992436 182) rotate(0 -127 0)"><path d="M-231.84 -6.91 C-238.26 -5.46, -242.58 -3.63, -255.38 1.52 M-231.84 -6.91 C-240.28 -3.69, -247.92 -0.73, -255.38 1.52" stroke="#1e1e1e" stroke-width="2" fill="none"></path></g><g transform="translate(1291.3915462992436 182) rotate(0 -127 0)"><path d="M-231.93 10.19 C-238.17 7.78, -242.46 5.75, -255.38 1.52 M-231.93 10.19 C-240.44 7.21, -248.04 3.96, -255.38 1.52" stroke="#1e1e1e" stroke-width="2" fill="none"></path></g></g><mask id="mask-LLFDeW5JLaIjVX8y8-XD_"><rect x="0" y="0" fill="#fff" width="1645.3915462992436" height="282"></rect><rect x="1140.9540462992436" y="158" fill="#000" width="46.875" height="48" opacity="1"></rect></mask><g transform="translate(1140.9540462992436 158) rotate(0 22.798276474582963 24.67981374572571)"><text x="23.4375" y="19.3125" font-family="Cascadia, Segoe UI Emoji" font-size="20px" fill="#1e1e1e" text-anchor="middle" style="white-space: pre;" direction="ltr" dominant-baseline="alphabetic">End</text><text x="23.4375" y="43.3125" font-family="Cascadia, Segoe UI Emoji" font-size="20px" fill="#1e1e1e" text-anchor="middle" style="white-space: pre;" direction="ltr" dominant-baseline="alphabetic">Ride</text></g><g transform="translate(941.3915462992436 10) rotate(0 87.890625 12)"><text x="0" y="19.3125" font-family="Cascadia, Segoe UI Emoji" font-size="20px" fill="#1e1e1e" text-anchor="start" style="white-space: pre;" direction="ltr" dominant-baseline="alphabetic">Ride Completion</text></g><g transform="translate(537.15625 49.75) rotate(0 35.15625 12)"><text x="0" y="19.3125" font-family="Cascadia, Segoe UI Emoji" font-size="20px" fill="#1e1e1e" text-anchor="start" style="white-space: pre;" direction="ltr" dominant-baseline="alphabetic">Driver</text></g><g transform="translate(10 38.75) rotate(0 29.296875 12)"><text x="0" y="19.3125" font-family="Cascadia, Segoe UI Emoji" font-size="20px" fill="#1e1e1e" text-anchor="start" style="white-space: pre;" direction="ltr" dominant-baseline="alphabetic">Rider</text></g><g transform="translate(1249 47.75) rotate(0 35.15625 12)"><text x="0" y="19.3125" font-family="Cascadia, Segoe UI Emoji" font-size="20px" fill="#1e1e1e" text-anchor="start" style="white-space: pre;" direction="ltr" dominant-baseline="alphabetic">Driver</text></g><g transform="translate(732.859375 37.75) rotate(0 29.296875 12)"><text x="0" y="19.3125" font-family="Cascadia, Segoe UI Emoji" font-size="20px" fill="#1e1e1e" text-anchor="start" style="white-space: pre;" direction="ltr" dominant-baseline="alphabetic">Rider</text></g><g mask="url(#mask-GrJJbNJO8rwxgcM4Zx_cx)" stroke-linecap="round"><g transform="translate(1022.15625 205.75) rotate(0 -24.5 54.5)"><path d="M-1.15 -0.49 C-10.74 8.82, -58.05 36.36, -56.81 54.79 C-55.57 73.23, -4.37 101.22, 6.3 110.12 M0.44 -1.79 C-8.83 7.79, -55.92 37.86, -54.52 56.22 C-53.13 74.58, -1.52 99.59, 8.82 108.37" stroke="#1e1e1e" stroke-width="2" fill="none"></path></g><g transform="translate(1022.15625 205.75) rotate(0 -24.5 54.5)"><path d="M-15.54 102.75 C-7.64 103.66, 1.61 105.86, 8.82 108.37 M-15.54 102.75 C-5.56 105.81, 3.59 107.19, 8.82 108.37" stroke="#1e1e1e" stroke-width="2" fill="none"></path></g><g transform="translate(1022.15625 205.75) rotate(0 -24.5 54.5)"><path d="M-6.23 88.41 C-1.81 94.39, 4.09 101.75, 8.82 108.37 M-6.23 88.41 C0.11 97.04, 5.6 104.07, 8.82 108.37" stroke="#1e1e1e" stroke-width="2" fill="none"></path></g></g><mask id="mask-GrJJbNJO8rwxgcM4Zx_cx"><rect x="0" y="0" fill="#fff" width="1185.15625" height="414.75"></rect><rect x="913.421875" y="236.75" fill="#000" width="105.46875" height="48" opacity="1"></rect></mask><g transform="translate(913.421875 236.75) rotate(0 84.72848685815086 23.16301558772568)"><text x="52.734375" y="19.3125" font-family="Cascadia, Segoe UI Emoji" font-size="20px" fill="#1e1e1e" text-anchor="middle" style="white-space: pre;" direction="ltr" dominant-baseline="alphabetic">Calculate</text><text x="52.734375" y="43.3125" font-family="Cascadia, Segoe UI Emoji" font-size="20px" fill="#1e1e1e" text-anchor="middle" style="white-space: pre;" direction="ltr" dominant-baseline="alphabetic">Fee</text></g><g mask="url(#mask-u1uQn7YP7caRnuJZ1VuWy)" stroke-linecap="round"><g transform="translate(1034.15625 330.75) rotate(0 -136 1)"><path d="M-0.36 0.99 C-45.92 1.12, -227.61 1.04, -272.83 1.14 M1.65 0.47 C-43.58 0.69, -224.9 1.86, -270.56 2.23" stroke="#1e1e1e" stroke-width="2" fill="none"></path></g><g transform="translate(1034.15625 330.75) rotate(0 -136 1)"><path d="M-247.13 -6.49 C-253.52 -4.95, -264.67 -0.04, -270.56 2.23 M-247.13 -6.49 C-254.26 -4.11, -260.33 -1.86, -270.56 2.23" stroke="#1e1e1e" stroke-width="2" fill="none"></path></g><g transform="translate(1034.15625 330.75) rotate(0 -136 1)"><path d="M-247.01 10.61 C-253.49 6.26, -264.69 5.28, -270.56 2.23 M-247.01 10.61 C-254.02 8.43, -260.12 6.11, -270.56 2.23" stroke="#1e1e1e" stroke-width="2" fill="none"></path></g></g><mask id="mask-u1uQn7YP7caRnuJZ1VuWy"><rect x="0" y="0" fill="#fff" width="1406.15625" height="432.75"></rect><rect x="857.140625" y="307.75" fill="#000" width="82.03125" height="48" opacity="1"></rect></mask><g transform="translate(857.140625 307.75) rotate(0 41.42380082142995 24.348603181438534)"><text x="41.015625" y="19.3125" font-family="Cascadia, Segoe UI Emoji" font-size="20px" fill="#1e1e1e" text-anchor="middle" style="white-space: pre;" direction="ltr" dominant-baseline="alphabetic">Show</text><text x="41.015625" y="43.3125" font-family="Cascadia, Segoe UI Emoji" font-size="20px" fill="#1e1e1e" text-anchor="middle" style="white-space: pre;" direction="ltr" dominant-baseline="alphabetic">Receipt</text></g><g mask="url(#mask-ZbBevtVtjX60KqM5WGZpy)" stroke-linecap="round"><g transform="translate(763.15625 401.75) rotate(0 137 1.5)"><path d="M-1.08 0.1 C44.61 0.58, 227.97 1.71, 273.8 2.2 M0.56 -0.89 C46.1 -0.21, 227.32 2.43, 272.74 3.32" stroke="#1e1e1e" stroke-width="2" fill="none"></path></g><g transform="translate(763.15625 401.75) rotate(0 137 1.5)"><path d="M249.11 11.47 C255.76 9.13, 260.68 7.09, 272.74 3.32 M249.11 11.47 C257.23 8.93, 263.22 7.55, 272.74 3.32" stroke="#1e1e1e" stroke-width="2" fill="none"></path></g><g transform="translate(763.15625 401.75) rotate(0 137 1.5)"><path d="M249.4 -5.62 C255.87 -3.32, 260.71 -0.71, 272.74 3.32 M249.4 -5.62 C257.45 -2.95, 263.36 0.88, 272.74 3.32" stroke="#1e1e1e" stroke-width="2" fill="none"></path></g></g><mask id="mask-ZbBevtVtjX60KqM5WGZpy"><rect x="0" y="0" fill="#fff" width="1137.15625" height="504.75"></rect><rect x="859.140625" y="379.25" fill="#000" width="82.03125" height="48" opacity="1"></rect></mask><g transform="translate(859.140625 379.25) rotate(0 40.37625252977023 23.714432192640345)"><text x="41.015625" y="19.3125" font-family="Cascadia, Segoe UI Emoji" font-size="20px" fill="#1e1e1e" text-anchor="middle" style="white-space: pre;" direction="ltr" dominant-baseline="alphabetic">Make</text><text x="41.015625" y="43.3125" font-family="Cascadia, Segoe UI Emoji" font-size="20px" fill="#1e1e1e" text-anchor="middle" style="white-space: pre;" direction="ltr" dominant-baseline="alphabetic">Payment</text></g><g mask="url(#mask-aKfYOuNdpo9bEsQ1-lmks)" stroke-linecap="round"><g transform="translate(1034.7956224702298 460.25) rotate(0 130.5 1.5)"><path d="M0.53 0.47 C44.02 0.89, 217.84 1.72, 261.1 2.12 M-0.65 -0.33 C42.68 0.25, 216.35 2.46, 260.2 3.2" stroke="#1e1e1e" stroke-width="2" fill="none"></path></g><g transform="translate(1034.7956224702298 460.25) rotate(0 130.5 1.5)"><path d="M236.59 11.41 C244.73 8.92, 249.82 4.63, 260.2 3.2 M236.59 11.41 C243.4 9.62, 249.49 5.82, 260.2 3.2" stroke="#1e1e1e" stroke-width="2" fill="none"></path></g><g transform="translate(1034.7956224702298 460.25) rotate(0 130.5 1.5)"><path d="M236.84 -5.69 C244.84 -2.87, 249.85 -1.85, 260.2 3.2 M236.84 -5.69 C243.69 -2.55, 249.72 -1.43, 260.2 3.2" stroke="#1e1e1e" stroke-width="2" fill="none"></path></g></g><mask id="mask-aKfYOuNdpo9bEsQ1-lmks"><rect x="0" y="0" fill="#fff" width="1395.7956224702298" height="563.25"></rect><rect x="1124.2799974702298" y="437.75" fill="#000" width="82.03125" height="48" opacity="1"></rect></mask><g transform="translate(1124.2799974702298 437.75) rotate(0 40.738868054109616 23.93373839699666)"><text x="41.015625" y="19.3125" font-family="Cascadia, Segoe UI Emoji" font-size="20px" fill="#1e1e1e" text-anchor="middle" style="white-space: pre;" direction="ltr" dominant-baseline="alphabetic">Make</text><text x="41.015625" y="43.3125" font-family="Cascadia, Segoe UI Emoji" font-size="20px" fill="#1e1e1e" text-anchor="middle" style="white-space: pre;" direction="ltr" dominant-baseline="alphabetic">Payment</text></g></svg>