<svg version="1.1" xmlns="http://www.w3.org/2000/svg" viewBox="0 0 686.2215067541599 342.5" width="686.2215067541599" height="342.5" filter="invert(93%) hue-rotate(180deg)">
  <!-- svg-source:excalidraw -->
  
  <defs>
    <style class="style-fonts">
      @font-face {
        font-family: "Virgil";
        src: url("https://excalidraw.com/Virgil.woff2");
      }
      @font-face {
        font-family: "Cascadia";
        src: url("https://excalidraw.com/Cascadia.woff2");
      }
      @font-face {
        font-family: "Assistant";
        src: url("https://excalidraw.com/Assistant-Regular.woff2");
      }
    </style>
    
  </defs>
  <g stroke-linecap="round" transform="translate(453.2215067541599 43) rotate(0 111.5 56)"><path d="M28 0 C87.4 0.29, 147.04 0.58, 195 0 M28 0 C61.86 0.52, 95.27 0.65, 195 0 M195 0 C211.77 -1.37, 224.54 10.54, 223 28 M195 0 C215.44 2.14, 223.62 8.29, 223 28 M223 28 C222.64 37.78, 224.53 52.1, 223 84 M223 28 C223.7 48.36, 223.18 68.69, 223 84 M223 84 C222.36 104.58, 212.55 110.51, 195 112 M223 84 C224.56 103.85, 212.64 110.72, 195 112 M195 112 C138.04 111.14, 78.07 112.2, 28 112 M195 112 C134.16 112.57, 74.31 112.07, 28 112 M28 112 C8.49 110.31, -1.91 103.45, 0 84 M28 112 C10.29 113.69, -1.49 104.52, 0 84 M0 84 C1.19 70.33, -0.67 54.7, 0 28 M0 84 C-0.42 61.29, 1.33 39.82, 0 28 M0 28 C-0.78 9.76, 11.21 1.91, 28 0 M0 28 C0.03 9.38, 10.66 0.79, 28 0" stroke="#1e1e1e" stroke-width="2" fill="none"></path></g><g transform="translate(487.2215067541599 10) rotate(0 76.171875 12)"><text x="0" y="19.3125" font-family="Cascadia, Segoe UI Emoji" font-size="20px" fill="#1e1e1e" text-anchor="start" style="white-space: pre;" direction="ltr" dominant-baseline="alphabetic">Data Center 1</text></g><g stroke-linecap="round" transform="translate(488.2215067541599 68) rotate(0 12.5 25.5)"><path d="M6.25 0 C10.69 -0.32, 14.23 0.54, 18.75 0 M6.25 0 C10.05 -0.67, 15 -0.23, 18.75 0 M18.75 0 C23.31 -1.08, 23.33 3.8, 25 6.25 M18.75 0 C21.61 2.01, 24.26 3.15, 25 6.25 M25 6.25 C25.54 16.84, 25.08 26.45, 25 44.75 M25 6.25 C25.63 18.81, 25.24 33.99, 25 44.75 M25 44.75 C26.17 50.07, 21.4 49.24, 18.75 51 M25 44.75 C22.81 50.31, 24.09 52.32, 18.75 51 M18.75 51 C16.98 50.93, 13.78 50.02, 6.25 51 M18.75 51 C14.5 51.36, 9.34 50.76, 6.25 51 M6.25 51 C0.1 50, 0.8 47.75, 0 44.75 M6.25 51 C1.28 49.17, -0.8 47.6, 0 44.75 M0 44.75 C1.3 34.45, -0.97 22.86, 0 6.25 M0 44.75 C0.57 31.56, 0.62 17.62, 0 6.25 M0 6.25 C1.91 3.01, 3.09 1.5, 6.25 0 M0 6.25 C-0.79 0.4, 2.7 0.09, 6.25 0" stroke="#1e1e1e" stroke-width="2" fill="none"></path></g><g stroke-linecap="round" transform="translate(536.7215067541599 67.5) rotate(0 12.5 25.5)"><path d="M6.25 0 C11.27 0.14, 16.21 -1.13, 18.75 0 M6.25 0 C10.14 0.21, 13.44 0.57, 18.75 0 M18.75 0 C24.32 -1.92, 24.34 3.88, 25 6.25 M18.75 0 C22.57 0.68, 22.75 1.72, 25 6.25 M25 6.25 C25.15 18.59, 23.91 33.49, 25 44.75 M25 6.25 C25.36 19.89, 24.57 33.48, 25 44.75 M25 44.75 C26.58 47.69, 23.34 51.48, 18.75 51 M25 44.75 C23.52 48.81, 23.86 50.63, 18.75 51 M18.75 51 C14.7 50.75, 11.63 51.52, 6.25 51 M18.75 51 C16.09 51.34, 14.02 51.35, 6.25 51 M6.25 51 C3.52 49.99, 1.25 50.34, 0 44.75 M6.25 51 C0.52 52.38, -0.42 48.29, 0 44.75 M0 44.75 C-1.74 38.08, 1.71 26.08, 0 6.25 M0 44.75 C-0.09 29.34, -0.94 14.26, 0 6.25 M0 6.25 C-1.55 1.69, 1.58 -1.99, 6.25 0 M0 6.25 C-1.18 0.59, 3.76 -1.76, 6.25 0" stroke="#1e1e1e" stroke-width="2" fill="none"></path></g><g stroke-linecap="round" transform="translate(580.7215067541599 68.5) rotate(0 12.5 25.5)"><path d="M6.25 0 C9.69 0.2, 13.71 1.12, 18.75 0 M6.25 0 C10.84 -0.71, 14.34 0.45, 18.75 0 M18.75 0 C22.62 0.59, 23.04 1.76, 25 6.25 M18.75 0 C23.87 -0.04, 26.46 2.27, 25 6.25 M25 6.25 C25.72 15.45, 23.89 27.24, 25 44.75 M25 6.25 C25.68 18.36, 25.1 31.94, 25 44.75 M25 44.75 C23.72 48.82, 23.73 50.68, 18.75 51 M25 44.75 C25.69 50.6, 24.43 51.13, 18.75 51 M18.75 51 C14.17 50.81, 12.07 50.9, 6.25 51 M18.75 51 C14.81 50.75, 10.36 51.51, 6.25 51 M6.25 51 C0.72 52.2, -0.37 48.37, 0 44.75 M6.25 51 C0.25 50.71, 1.27 46.86, 0 44.75 M0 44.75 C1.39 29.71, 0.6 14.54, 0 6.25 M0 44.75 C-0.41 35.15, 0.11 24.94, 0 6.25 M0 6.25 C-1.02 0.78, 3.54 -1.53, 6.25 0 M0 6.25 C-2 1.97, 1.35 1.75, 6.25 0" stroke="#1e1e1e" stroke-width="2" fill="none"></path></g><g stroke-linecap="round" transform="translate(451.7215067541599 220.5) rotate(0 111.5 56)"><path d="M28 0 C78.5 1.03, 127.26 -2.18, 195 0 M28 0 C82.32 -1.33, 137.76 -0.8, 195 0 M195 0 C214.99 0.3, 222.94 7.48, 223 28 M195 0 C214.61 -1.55, 223.7 10.54, 223 28 M223 28 C221.52 39.13, 221.55 50.92, 223 84 M223 28 C221.91 49.71, 221.77 71.92, 223 84 M223 84 C222.91 102.11, 214.47 113.8, 195 112 M223 84 C223.67 101.22, 211.56 109.72, 195 112 M195 112 C158.69 113.59, 123.88 113.02, 28 112 M195 112 C131.85 111.64, 68.97 111.97, 28 112 M28 112 C7.42 111.3, 1.82 102.88, 0 84 M28 112 C8.94 114.25, 2.19 104.64, 0 84 M0 84 C0.78 66.18, -1.15 49.55, 0 28 M0 84 C-1.22 66, -0.07 50.1, 0 28 M0 28 C-1.84 9.03, 9 -0.87, 28 0 M0 28 C1.68 11.21, 7.45 -1.53, 28 0" stroke="#1e1e1e" stroke-width="2" fill="none"></path></g><g transform="translate(485.7215067541599 187.5) rotate(0 76.171875 12)"><text x="0" y="19.3125" font-family="Cascadia, Segoe UI Emoji" font-size="20px" fill="#1e1e1e" text-anchor="start" style="white-space: pre;" direction="ltr" dominant-baseline="alphabetic">Data Center 2</text></g><g stroke-linecap="round" transform="translate(486.7215067541599 245.5) rotate(0 12.5 25.5)"><path d="M6.25 0 C11.48 -0.71, 16.67 -0.44, 18.75 0 M6.25 0 C9.84 0.08, 12.58 -0.59, 18.75 0 M18.75 0 C23.74 -1.34, 25.61 3.13, 25 6.25 M18.75 0 C20.91 -1.53, 26.32 0.8, 25 6.25 M25 6.25 C26.57 14.44, 24.85 25.15, 25 44.75 M25 6.25 C24.68 17.29, 25.12 29.79, 25 44.75 M25 44.75 C25.58 47.66, 21.08 49.02, 18.75 51 M25 44.75 C22.87 49.09, 23.97 49.04, 18.75 51 M18.75 51 C15.47 50.88, 9.62 51.19, 6.25 51 M18.75 51 C13.85 50.88, 10.71 51.16, 6.25 51 M6.25 51 C1.74 52.96, 1.91 50.64, 0 44.75 M6.25 51 C2 51.07, 0.31 49.83, 0 44.75 M0 44.75 C0.45 36.57, 1.93 24.47, 0 6.25 M0 44.75 C-1 35.18, -0.25 25.48, 0 6.25 M0 6.25 C1.46 3.71, 0.44 -1.33, 6.25 0 M0 6.25 C1.87 1.78, 3.32 0.21, 6.25 0" stroke="#1e1e1e" stroke-width="2" fill="none"></path></g><g stroke-linecap="round" transform="translate(535.2215067541599 245) rotate(0 12.5 25.5)"><path d="M6.25 0 C9.78 -0.45, 11.43 0.41, 18.75 0 M6.25 0 C10.07 -0.6, 14.18 -0.44, 18.75 0 M18.75 0 C23.53 1.05, 23.26 0.76, 25 6.25 M18.75 0 C24.23 -1.28, 24.09 0.85, 25 6.25 M25 6.25 C25.39 14.86, 25.22 24.34, 25 44.75 M25 6.25 C25.38 20.16, 25.27 31.64, 25 44.75 M25 44.75 C23.16 46.94, 21.06 51.15, 18.75 51 M25 44.75 C26.06 46.96, 23.87 48.81, 18.75 51 M18.75 51 C14.24 51.17, 11.49 51.67, 6.25 51 M18.75 51 C14.6 51.02, 9.21 51.57, 6.25 51 M6.25 51 C3.99 52.72, -0.07 48.97, 0 44.75 M6.25 51 C2.4 51.91, -1.4 47.61, 0 44.75 M0 44.75 C1.67 33.74, -1.15 26.86, 0 6.25 M0 44.75 C0.19 28.95, 1.08 14.84, 0 6.25 M0 6.25 C-1.64 0.75, 3.71 -0.26, 6.25 0 M0 6.25 C1.24 2.29, 1.17 1.29, 6.25 0" stroke="#1e1e1e" stroke-width="2" fill="none"></path></g><g stroke-linecap="round" transform="translate(579.2215067541599 246) rotate(0 12.5 25.5)"><path d="M6.25 0 C8.63 0.38, 12.25 0.88, 18.75 0 M6.25 0 C10.44 -0.3, 14.31 0.44, 18.75 0 M18.75 0 C21.18 -1.33, 26.14 0.97, 25 6.25 M18.75 0 C22 -1.24, 23.93 4.12, 25 6.25 M25 6.25 C24.89 12.84, 25.77 22.19, 25 44.75 M25 6.25 C25.44 16.09, 24.24 26.2, 25 44.75 M25 44.75 C23.14 49.07, 23.84 49.29, 18.75 51 M25 44.75 C25.95 46.72, 23.21 52.82, 18.75 51 M18.75 51 C15.7 51.7, 12.49 49.82, 6.25 51 M18.75 51 C15.33 51.63, 12.72 51.55, 6.25 51 M6.25 51 C2.01 51.06, 0.27 49.71, 0 44.75 M6.25 51 C0.69 49.7, -1.43 49.18, 0 44.75 M0 44.75 C-1.44 31.64, 1.65 15.82, 0 6.25 M0 44.75 C0.79 34.6, -0.76 22.15, 0 6.25 M0 6.25 C1.63 1.82, 3.16 0.18, 6.25 0 M0 6.25 C-0.91 3.37, 3.6 1.5, 6.25 0" stroke="#1e1e1e" stroke-width="2" fill="none"></path></g><g stroke-linecap="round" transform="translate(426.2215067541599 73) rotate(0 23 24)"><path d="M11.5 0 C14.61 -0.57, 26.74 -1.37, 34.5 0 C41.56 2.8, 49.25 1.08, 46 11.5 C46.07 21.17, 42.97 26.57, 46 36.5 C43.79 41.64, 40.94 44.57, 34.5 48 C23.18 50.39, 16.49 45.58, 11.5 48 C3.91 45.11, -2.67 44.47, 0 36.5 C-2.84 29.54, -0.85 22.79, 0 11.5 C0.17 1.39, 0.91 2.05, 11.5 0" stroke="none" stroke-width="0" fill="#ffffff"></path><path d="M11.5 0 C19.36 -1.66, 25.58 1.59, 34.5 0 M11.5 0 C17.8 -0.91, 24.32 -0.96, 34.5 0 M34.5 0 C41.9 -1.11, 45.22 4.39, 46 11.5 M34.5 0 C44.36 -1.61, 47.24 2.39, 46 11.5 M46 11.5 C46.06 20.83, 45.93 27.22, 46 36.5 M46 11.5 C46.15 17.72, 45.54 23.61, 46 36.5 M46 36.5 C47.19 44.43, 40.94 47.68, 34.5 48 M46 36.5 C47.6 44.79, 44.29 47.86, 34.5 48 M34.5 48 C28.34 48.43, 25.52 48.66, 11.5 48 M34.5 48 C29.17 47.38, 23.8 48.06, 11.5 48 M11.5 48 C4.96 49.66, -0.56 45.06, 0 36.5 M11.5 48 C4.95 47.16, -0.97 46.4, 0 36.5 M0 36.5 C-1.28 29.55, 1.03 20.94, 0 11.5 M0 36.5 C-0.25 29.37, -0.95 21.77, 0 11.5 M0 11.5 C0.87 3.06, 4.01 -0.93, 11.5 0 M0 11.5 C1.82 6.08, 4.17 -2.21, 11.5 0" stroke="#1e1e1e" stroke-width="2" fill="none"></path></g><g transform="translate(437.5027567541599 85) rotate(0 11.71875 12)"><text x="11.71875" y="19.3125" font-family="Cascadia, Segoe UI Emoji" font-size="20px" fill="#1e1e1e" text-anchor="middle" style="white-space: pre;" direction="ltr" dominant-baseline="alphabetic">LB</text></g><g stroke-linecap="round" transform="translate(422.2215067541599 251) rotate(0 23 24)"><path d="M11.5 0 C15.47 -0.85, 20.99 3.73, 34.5 0 C45.31 1.59, 49.58 1.99, 46 11.5 C48.6 18.01, 45.21 31.32, 46 36.5 C46.73 45.27, 40.26 46.55, 34.5 48 C25.26 44.99, 16.06 48.26, 11.5 48 C0.94 48.8, 3.36 46.07, 0 36.5 C-3.24 27.45, -2.94 26.46, 0 11.5 C3.5 1.04, 2.66 1.02, 11.5 0" stroke="none" stroke-width="0" fill="#ffffff"></path><path d="M11.5 0 C19.82 1.19, 30 1.59, 34.5 0 M11.5 0 C20.22 -0.17, 28.71 -0.66, 34.5 0 M34.5 0 C43.51 -1.03, 46.19 2.25, 46 11.5 M34.5 0 C43.13 0.87, 46.42 4.22, 46 11.5 M46 11.5 C45.96 17.53, 45.24 26.44, 46 36.5 M46 11.5 C46.48 16.46, 45.02 21.46, 46 36.5 M46 36.5 C46.04 45.13, 43.77 47.83, 34.5 48 M46 36.5 C47.79 42.69, 42.04 50.16, 34.5 48 M34.5 48 C25.81 46.96, 20.49 49.59, 11.5 48 M34.5 48 C28.35 48.36, 23.41 47.62, 11.5 48 M11.5 48 C4.95 48.92, 0.11 42.31, 0 36.5 M11.5 48 C3.33 50.27, -0.58 43.56, 0 36.5 M0 36.5 C0.92 29.24, 0.15 23.5, 0 11.5 M0 36.5 C1.15 30.1, -0.26 24.22, 0 11.5 M0 11.5 C0.76 4.29, 5.73 -0.71, 11.5 0 M0 11.5 C-0.67 2.01, 2.06 0.65, 11.5 0" stroke="#1e1e1e" stroke-width="2" fill="none"></path></g><g transform="translate(433.5027567541599 263) rotate(0 11.71875 12)"><text x="11.71875" y="19.3125" font-family="Cascadia, Segoe UI Emoji" font-size="20px" fill="#1e1e1e" text-anchor="middle" style="white-space: pre;" direction="ltr" dominant-baseline="alphabetic">LB</text></g><g stroke-linecap="round" transform="translate(18.70026815195567 48.27572012124119) rotate(0 11 11.5)"><path d="M12.72 0.19 C14.96 0.39, 17.38 2.14, 18.97 3.99 C20.55 5.84, 22.01 8.93, 22.22 11.29 C22.43 13.66, 21.67 16.26, 20.24 18.18 C18.8 20.09, 15.95 22.23, 13.61 22.8 C11.27 23.37, 8.34 22.77, 6.2 21.59 C4.07 20.42, 1.77 17.92, 0.8 15.74 C-0.16 13.55, -0.31 10.87, 0.41 8.48 C1.13 6.1, 3.09 2.78, 5.11 1.44 C7.12 0.1, 11.16 0.66, 12.5 0.47 C13.84 0.27, 13.12 0.11, 13.15 0.27 M12.45 0.69 C14.7 0.85, 17.42 2.37, 18.93 4.01 C20.45 5.64, 21.34 8.11, 21.54 10.51 C21.74 12.91, 21.37 16.38, 20.16 18.39 C18.95 20.4, 16.58 21.91, 14.29 22.55 C12 23.2, 8.56 23.35, 6.42 22.27 C4.28 21.19, 2.54 18.27, 1.45 16.08 C0.36 13.89, -0.7 11.58, -0.12 9.14 C0.46 6.7, 3.05 3.04, 4.93 1.43 C6.82 -0.17, 10.09 -0.24, 11.19 -0.48 C12.28 -0.71, 11.44 -0.26, 11.48 0.01" stroke="#1e1e1e" stroke-width="2" fill="none"></path></g><g stroke-linecap="round"><g transform="translate(28.70026815195567 69.27572012124119) rotate(0 0 24.5)"><path d="M0.26 -0.07 C0.23 8.13, -0.06 41.3, -0.08 49.47 M-0.27 -0.58 C-0.39 7.46, -0.57 40.39, -0.56 48.74" stroke="#1e1e1e" stroke-width="2" fill="none"></path></g></g><mask></mask><g stroke-linecap="round"><g transform="translate(28.70026815195567 119.27572012124119) rotate(0 -7.5 9)"><path d="M-0.18 1.02 C-2.73 4.03, -12.41 14.96, -14.74 17.89 M-1.73 0.51 C-4.47 3.73, -13.43 16.7, -15.55 19.36" stroke="#1e1e1e" stroke-width="2" fill="none"></path></g></g><mask></mask><g stroke-linecap="round"><g transform="translate(29.70026815195567 125.27572012124119) rotate(0 8 8.5)"><path d="M0.26 -0.11 C3.1 2.64, 14.07 14.54, 16.87 17.56 M-1.06 -1.22 C1.72 1.7, 13.4 12.83, 16.39 15.74" stroke="#1e1e1e" stroke-width="2" fill="none"></path></g></g><mask></mask><g stroke-linecap="round"><g transform="translate(29.70026815195567 90.27572012124119) rotate(0 8 7.5)"><path d="M0.87 0.56 C3.68 3.25, 14.62 13.58, 17.06 16.02 M-0.12 -0.19 C2.59 2.2, 14.24 11.63, 16.67 14.44" stroke="#1e1e1e" stroke-width="2" fill="none"></path></g></g><mask></mask><g stroke-linecap="round"><g transform="translate(27.70026815195567 90.27572012124119) rotate(0 -8 8)"><path d="M1.06 1.02 C-1.83 3.63, -13.69 13.65, -16.49 16.21 M0.16 0.51 C-3.01 2.69, -14.94 11.91, -17.7 14.2" stroke="#1e1e1e" stroke-width="2" fill="none"></path></g></g><mask></mask><g stroke-linecap="round" transform="translate(266.2215067541599 138) rotate(0 43 45.5)"><path d="M21.5 0 C36.69 0.21, 52.78 -0.61, 64.5 0 C76.98 -0.41, 87.36 6.46, 86 21.5 C89.76 33.72, 88.15 53.63, 86 69.5 C87.53 80.53, 82.34 93.88, 64.5 91 C55.85 93.59, 46.26 94.82, 21.5 91 C6.38 88.92, 0.93 84.17, 0 69.5 C-2.46 51.59, 3.82 43.14, 0 21.5 C-2.23 8.71, 6.56 2.68, 21.5 0" stroke="none" stroke-width="0" fill="#ffffff"></path><path d="M21.5 0 C34.38 0.09, 46.9 1.99, 64.5 0 M21.5 0 C34.6 0.4, 49.37 0.38, 64.5 0 M64.5 0 C79.04 -0.31, 85.08 7.38, 86 21.5 M64.5 0 C80.96 -1.69, 85.1 5.07, 86 21.5 M86 21.5 C87.56 36.22, 86.61 53.67, 86 69.5 M86 21.5 C85.52 34.76, 85.32 50.3, 86 69.5 M86 69.5 C86.68 83.44, 79.94 91.78, 64.5 91 M86 69.5 C85.64 82.68, 80.28 90.79, 64.5 91 M64.5 91 C49.19 91.5, 37.52 92.42, 21.5 91 M64.5 91 C48.02 91.38, 31.66 91.78, 21.5 91 M21.5 91 C8.49 91.75, 0.29 82.18, 0 69.5 M21.5 91 C6.99 91.1, -0.1 82.3, 0 69.5 M0 69.5 C1.06 54.82, 0.09 39.22, 0 21.5 M0 69.5 C1.12 58.64, 0.4 45.78, 0 21.5 M0 21.5 C1.42 8.66, 5.63 -0.6, 21.5 0 M0 21.5 C0.46 8.05, 6.1 -1.65, 21.5 0" stroke="#1e1e1e" stroke-width="2" fill="none"></path></g><g transform="translate(285.7840067541599 171.5) rotate(0 23.4375 12)"><text x="23.4375" y="19.3125" font-family="Cascadia, Segoe UI Emoji" font-size="20px" fill="#1e1e1e" text-anchor="middle" style="white-space: pre;" direction="ltr" dominant-baseline="alphabetic">GSLB</text></g><g mask="url(#mask-qYL2-591_spAbU_-_Mwto)" stroke-linecap="round"><g transform="translate(53.5263033093469 62.46276308505884) rotate(0 98.3476017224065 37.60973263828686)"><path d="M-0.69 0.31 C31.94 12.89, 164.08 62.89, 196.81 75.21 M1.14 -0.57 C33.53 12.23, 163.11 64.14, 195.92 76.75" stroke="#1e1e1e" stroke-width="2" fill="none"></path></g><g transform="translate(53.5263033093469 62.46276308505884) rotate(0 98.3476017224065 37.60973263828686)"><path d="M170.93 76.1 C181.08 76.68, 190.19 75.01, 195.92 76.75 M170.93 76.1 C177.26 77.16, 181.27 77.06, 195.92 76.75" stroke="#1e1e1e" stroke-width="2" fill="none"></path></g><g transform="translate(53.5263033093469 62.46276308505884) rotate(0 98.3476017224065 37.60973263828686)"><path d="M177.19 60.19 C184.89 66.87, 191.59 71.33, 195.92 76.75 M177.19 60.19 C182 64.68, 184.64 68.07, 195.92 76.75" stroke="#1e1e1e" stroke-width="2" fill="none"></path></g></g><mask id="mask-qYL2-591_spAbU_-_Mwto"><rect x="0" y="0" fill="#fff" width="350.2215067541599" height="237.68222836163255"></rect><rect x="76.8739050317534" y="90.47249572334573" fill="#000" width="150" height="19.2" opacity="1"></rect></mask><g transform="translate(76.87390503175345 90.4724957233457) rotate(0 74.70874754413958 10.078782977694644)"><text x="75" y="15.45" font-family="Cascadia, Segoe UI Emoji" font-size="16px" fill="#1e1e1e" text-anchor="middle" style="white-space: pre;" direction="ltr" dominant-baseline="alphabetic">Step 1 - xyz.com</text></g><g mask="url(#mask-4qU48_a-GfM2OSLcfJ-PG)" stroke-linecap="round"><g transform="translate(253.2215067541599 219) rotate(0 -102 -51)"><path d="M-0.39 0.9 C-34.46 -16.22, -170.08 -85.08, -204.05 -102.29 M1.6 0.33 C-32.66 -16.65, -170.57 -83.97, -205.02 -100.9" stroke="#1e1e1e" stroke-width="2" fill="none"></path></g><g transform="translate(253.2215067541599 219) rotate(0 -102 -51)"><path d="M-180.16 -98.25 C-186.84 -99.28, -197.01 -100.43, -205.02 -100.9 M-180.16 -98.25 C-187.4 -98.35, -192.69 -99.61, -205.02 -100.9" stroke="#1e1e1e" stroke-width="2" fill="none"></path></g><g transform="translate(253.2215067541599 219) rotate(0 -102 -51)"><path d="M-187.68 -82.89 C-191.95 -88.95, -199.64 -95.16, -205.02 -100.9 M-187.68 -82.89 C-192.78 -87.19, -196.04 -92.59, -205.02 -100.9" stroke="#1e1e1e" stroke-width="2" fill="none"></path></g></g><mask id="mask-4qU48_a-GfM2OSLcfJ-PG"><rect x="0" y="0" fill="#fff" width="557.2215067541599" height="421"></rect><rect x="76.22150675415992" y="158.39999999999998" fill="#000" width="150" height="19.2" opacity="1"></rect></mask><g transform="translate(76.22150675415992 158.39999999999998) rotate(0 75.29132266304458 9.908430931717191)"><text x="75" y="15.45" font-family="Cascadia, Segoe UI Emoji" font-size="16px" fill="#1e1e1e" text-anchor="middle" style="white-space: pre;" direction="ltr" dominant-baseline="alphabetic">Step 2 - 1.2.3.4</text></g><g mask="url(#mask-6zpHVOOkHpHxV__KWtg51)" stroke-linecap="round"><g transform="translate(40.22150675415989 45) rotate(0 192 18)"><path d="M0.06 0.16 C63.84 6.35, 319.09 30.98, 382.93 37.1 M-1.37 -0.8 C62.75 5.08, 320.59 29.59, 385.08 35.55" stroke="#1e1e1e" stroke-width="2" fill="none"></path></g><g transform="translate(40.22150675415989 45) rotate(0 192 18)"><path d="M360.89 41.87 C368.87 38.06, 378.13 36.36, 385.08 35.55 M360.89 41.87 C369.44 39.63, 378.71 36.42, 385.08 35.55" stroke="#1e1e1e" stroke-width="2" fill="none"></path></g><g transform="translate(40.22150675415989 45) rotate(0 192 18)"><path d="M362.49 24.84 C369.96 26.46, 378.71 30.19, 385.08 35.55 M362.49 24.84 C370.59 28.95, 379.26 32.09, 385.08 35.55" stroke="#1e1e1e" stroke-width="2" fill="none"></path></g></g><mask id="mask-6zpHVOOkHpHxV__KWtg51"><rect x="0" y="0" fill="#fff" width="524.2215067541599" height="181"></rect><rect x="157.22150675415992" y="53.400000000000006" fill="#000" width="150" height="19.2" opacity="1"></rect></mask><g transform="translate(157.22150675415992 53.400000000000006) rotate(0 74.85414366270419 9.751652715601963)"><text x="75" y="15.45" font-family="Cascadia, Segoe UI Emoji" font-size="16px" fill="#1e1e1e" text-anchor="middle" style="white-space: pre;" direction="ltr" dominant-baseline="alphabetic">Step 3 - 1.2.3.4</text></g><g transform="translate(416.2215067541599 122) rotate(0 32.8125 9.599999999999994)"><text x="0" y="15.45" font-family="Cascadia, Segoe UI Emoji" font-size="16px" fill="#1e1e1e" text-anchor="start" style="white-space: pre;" direction="ltr" dominant-baseline="alphabetic">1.2.3.4</text></g></svg>