<svg version="1.1" xmlns="http://www.w3.org/2000/svg" viewBox="0 0 270 342.5" width="270" height="342.5" filter="invert(93%) hue-rotate(180deg)">
  <!-- svg-source:excalidraw -->
  
  <defs>
    <style class="style-fonts">
      @font-face {
        font-family: "Virgil";
        src: url("https://excalidraw.com/Virgil.woff2");
      }
      @font-face {
        font-family: "Cascadia";
        src: url("https://excalidraw.com/Cascadia.woff2");
      }
      @font-face {
        font-family: "Assistant";
        src: url("https://excalidraw.com/Assistant-Regular.woff2");
      }
    </style>
    
  </defs>
  <g stroke-linecap="round" transform="translate(37 43) rotate(0 111.5 56)"><path d="M28 0 C87.4 0.29, 147.04 0.58, 195 0 M28 0 C61.86 0.52, 95.27 0.65, 195 0 M195 0 C211.77 -1.37, 224.54 10.54, 223 28 M195 0 C215.44 2.14, 223.62 8.29, 223 28 M223 28 C222.64 37.78, 224.53 52.1, 223 84 M223 28 C223.7 48.36, 223.18 68.69, 223 84 M223 84 C222.36 104.58, 212.55 110.51, 195 112 M223 84 C224.56 103.85, 212.64 110.72, 195 112 M195 112 C138.04 111.14, 78.07 112.2, 28 112 M195 112 C134.16 112.57, 74.31 112.07, 28 112 M28 112 C8.49 110.31, -1.91 103.45, 0 84 M28 112 C10.29 113.69, -1.49 104.52, 0 84 M0 84 C1.19 70.33, -0.67 54.7, 0 28 M0 84 C-0.42 61.29, 1.33 39.82, 0 28 M0 28 C-0.78 9.76, 11.21 1.91, 28 0 M0 28 C0.03 9.38, 10.66 0.79, 28 0" stroke="#1e1e1e" stroke-width="2" fill="none"></path></g><g transform="translate(71 10) rotate(0 76.171875 12)"><text x="0" y="19.3125" font-family="Cascadia, Segoe UI Emoji" font-size="20px" fill="#1e1e1e" text-anchor="start" style="white-space: pre;" direction="ltr" dominant-baseline="alphabetic">Data Center 1</text></g><g stroke-linecap="round" transform="translate(72 68) rotate(0 12.5 25.5)"><path d="M6.25 0 C10.69 -0.32, 14.23 0.54, 18.75 0 M6.25 0 C10.05 -0.67, 15 -0.23, 18.75 0 M18.75 0 C23.31 -1.08, 23.33 3.8, 25 6.25 M18.75 0 C21.61 2.01, 24.26 3.15, 25 6.25 M25 6.25 C25.54 16.84, 25.08 26.45, 25 44.75 M25 6.25 C25.63 18.81, 25.24 33.99, 25 44.75 M25 44.75 C26.17 50.07, 21.4 49.24, 18.75 51 M25 44.75 C22.81 50.31, 24.09 52.32, 18.75 51 M18.75 51 C16.98 50.93, 13.78 50.02, 6.25 51 M18.75 51 C14.5 51.36, 9.34 50.76, 6.25 51 M6.25 51 C0.1 50, 0.8 47.75, 0 44.75 M6.25 51 C1.28 49.17, -0.8 47.6, 0 44.75 M0 44.75 C1.3 34.45, -0.97 22.86, 0 6.25 M0 44.75 C0.57 31.56, 0.62 17.62, 0 6.25 M0 6.25 C1.91 3.01, 3.09 1.5, 6.25 0 M0 6.25 C-0.79 0.4, 2.7 0.09, 6.25 0" stroke="#1e1e1e" stroke-width="2" fill="none"></path></g><g stroke-linecap="round" transform="translate(120.5 67.5) rotate(0 12.5 25.5)"><path d="M6.25 0 C11.27 0.14, 16.21 -1.13, 18.75 0 M6.25 0 C10.14 0.21, 13.44 0.57, 18.75 0 M18.75 0 C24.32 -1.92, 24.34 3.88, 25 6.25 M18.75 0 C22.57 0.68, 22.75 1.72, 25 6.25 M25 6.25 C25.15 18.59, 23.91 33.49, 25 44.75 M25 6.25 C25.36 19.89, 24.57 33.48, 25 44.75 M25 44.75 C26.58 47.69, 23.34 51.48, 18.75 51 M25 44.75 C23.52 48.81, 23.86 50.63, 18.75 51 M18.75 51 C14.7 50.75, 11.63 51.52, 6.25 51 M18.75 51 C16.09 51.34, 14.02 51.35, 6.25 51 M6.25 51 C3.52 49.99, 1.25 50.34, 0 44.75 M6.25 51 C0.52 52.38, -0.42 48.29, 0 44.75 M0 44.75 C-1.74 38.08, 1.71 26.08, 0 6.25 M0 44.75 C-0.09 29.34, -0.94 14.26, 0 6.25 M0 6.25 C-1.55 1.69, 1.58 -1.99, 6.25 0 M0 6.25 C-1.18 0.59, 3.76 -1.76, 6.25 0" stroke="#1e1e1e" stroke-width="2" fill="none"></path></g><g stroke-linecap="round" transform="translate(164.5 68.5) rotate(0 12.5 25.5)"><path d="M6.25 0 C9.69 0.2, 13.71 1.12, 18.75 0 M6.25 0 C10.84 -0.71, 14.34 0.45, 18.75 0 M18.75 0 C22.62 0.59, 23.04 1.76, 25 6.25 M18.75 0 C23.87 -0.04, 26.46 2.27, 25 6.25 M25 6.25 C25.72 15.45, 23.89 27.24, 25 44.75 M25 6.25 C25.68 18.36, 25.1 31.94, 25 44.75 M25 44.75 C23.72 48.82, 23.73 50.68, 18.75 51 M25 44.75 C25.69 50.6, 24.43 51.13, 18.75 51 M18.75 51 C14.17 50.81, 12.07 50.9, 6.25 51 M18.75 51 C14.81 50.75, 10.36 51.51, 6.25 51 M6.25 51 C0.72 52.2, -0.37 48.37, 0 44.75 M6.25 51 C0.25 50.71, 1.27 46.86, 0 44.75 M0 44.75 C1.39 29.71, 0.6 14.54, 0 6.25 M0 44.75 C-0.41 35.15, 0.11 24.94, 0 6.25 M0 6.25 C-1.02 0.78, 3.54 -1.53, 6.25 0 M0 6.25 C-2 1.97, 1.35 1.75, 6.25 0" stroke="#1e1e1e" stroke-width="2" fill="none"></path></g><g stroke-linecap="round" transform="translate(35.5 220.5) rotate(0 111.5 56)"><path d="M28 0 C78.5 1.03, 127.26 -2.18, 195 0 M28 0 C82.32 -1.33, 137.76 -0.8, 195 0 M195 0 C214.99 0.3, 222.94 7.48, 223 28 M195 0 C214.61 -1.55, 223.7 10.54, 223 28 M223 28 C221.52 39.13, 221.55 50.92, 223 84 M223 28 C221.91 49.71, 221.77 71.92, 223 84 M223 84 C222.91 102.11, 214.47 113.8, 195 112 M223 84 C223.67 101.22, 211.56 109.72, 195 112 M195 112 C158.69 113.59, 123.88 113.02, 28 112 M195 112 C131.85 111.64, 68.97 111.97, 28 112 M28 112 C7.42 111.3, 1.82 102.88, 0 84 M28 112 C8.94 114.25, 2.19 104.64, 0 84 M0 84 C0.78 66.18, -1.15 49.55, 0 28 M0 84 C-1.22 66, -0.07 50.1, 0 28 M0 28 C-1.84 9.03, 9 -0.87, 28 0 M0 28 C1.68 11.21, 7.45 -1.53, 28 0" stroke="#1e1e1e" stroke-width="2" fill="none"></path></g><g transform="translate(69.5 187.5) rotate(0 76.171875 12)"><text x="0" y="19.3125" font-family="Cascadia, Segoe UI Emoji" font-size="20px" fill="#1e1e1e" text-anchor="start" style="white-space: pre;" direction="ltr" dominant-baseline="alphabetic">Data Center 2</text></g><g stroke-linecap="round" transform="translate(70.5 245.5) rotate(0 12.5 25.5)"><path d="M6.25 0 C11.48 -0.71, 16.67 -0.44, 18.75 0 M6.25 0 C9.84 0.08, 12.58 -0.59, 18.75 0 M18.75 0 C23.74 -1.34, 25.61 3.13, 25 6.25 M18.75 0 C20.91 -1.53, 26.32 0.8, 25 6.25 M25 6.25 C26.57 14.44, 24.85 25.15, 25 44.75 M25 6.25 C24.68 17.29, 25.12 29.79, 25 44.75 M25 44.75 C25.58 47.66, 21.08 49.02, 18.75 51 M25 44.75 C22.87 49.09, 23.97 49.04, 18.75 51 M18.75 51 C15.47 50.88, 9.62 51.19, 6.25 51 M18.75 51 C13.85 50.88, 10.71 51.16, 6.25 51 M6.25 51 C1.74 52.96, 1.91 50.64, 0 44.75 M6.25 51 C2 51.07, 0.31 49.83, 0 44.75 M0 44.75 C0.45 36.57, 1.93 24.47, 0 6.25 M0 44.75 C-1 35.18, -0.25 25.48, 0 6.25 M0 6.25 C1.46 3.71, 0.44 -1.33, 6.25 0 M0 6.25 C1.87 1.78, 3.32 0.21, 6.25 0" stroke="#1e1e1e" stroke-width="2" fill="none"></path></g><g stroke-linecap="round" transform="translate(119 245) rotate(0 12.5 25.5)"><path d="M6.25 0 C9.78 -0.45, 11.43 0.41, 18.75 0 M6.25 0 C10.07 -0.6, 14.18 -0.44, 18.75 0 M18.75 0 C23.53 1.05, 23.26 0.76, 25 6.25 M18.75 0 C24.23 -1.28, 24.09 0.85, 25 6.25 M25 6.25 C25.39 14.86, 25.22 24.34, 25 44.75 M25 6.25 C25.38 20.16, 25.27 31.64, 25 44.75 M25 44.75 C23.16 46.94, 21.06 51.15, 18.75 51 M25 44.75 C26.06 46.96, 23.87 48.81, 18.75 51 M18.75 51 C14.24 51.17, 11.49 51.67, 6.25 51 M18.75 51 C14.6 51.02, 9.21 51.57, 6.25 51 M6.25 51 C3.99 52.72, -0.07 48.97, 0 44.75 M6.25 51 C2.4 51.91, -1.4 47.61, 0 44.75 M0 44.75 C1.67 33.74, -1.15 26.86, 0 6.25 M0 44.75 C0.19 28.95, 1.08 14.84, 0 6.25 M0 6.25 C-1.64 0.75, 3.71 -0.26, 6.25 0 M0 6.25 C1.24 2.29, 1.17 1.29, 6.25 0" stroke="#1e1e1e" stroke-width="2" fill="none"></path></g><g stroke-linecap="round" transform="translate(163 246) rotate(0 12.5 25.5)"><path d="M6.25 0 C8.63 0.38, 12.25 0.88, 18.75 0 M6.25 0 C10.44 -0.3, 14.31 0.44, 18.75 0 M18.75 0 C21.18 -1.33, 26.14 0.97, 25 6.25 M18.75 0 C22 -1.24, 23.93 4.12, 25 6.25 M25 6.25 C24.89 12.84, 25.77 22.19, 25 44.75 M25 6.25 C25.44 16.09, 24.24 26.2, 25 44.75 M25 44.75 C23.14 49.07, 23.84 49.29, 18.75 51 M25 44.75 C25.95 46.72, 23.21 52.82, 18.75 51 M18.75 51 C15.7 51.7, 12.49 49.82, 6.25 51 M18.75 51 C15.33 51.63, 12.72 51.55, 6.25 51 M6.25 51 C2.01 51.06, 0.27 49.71, 0 44.75 M6.25 51 C0.69 49.7, -1.43 49.18, 0 44.75 M0 44.75 C-1.44 31.64, 1.65 15.82, 0 6.25 M0 44.75 C0.79 34.6, -0.76 22.15, 0 6.25 M0 6.25 C1.63 1.82, 3.16 0.18, 6.25 0 M0 6.25 C-0.91 3.37, 3.6 1.5, 6.25 0" stroke="#1e1e1e" stroke-width="2" fill="none"></path></g><g stroke-linecap="round" transform="translate(10 73) rotate(0 23 24)"><path d="M11.5 0 C14.61 -0.57, 26.74 -1.37, 34.5 0 C41.56 2.8, 49.25 1.08, 46 11.5 C46.07 21.17, 42.97 26.57, 46 36.5 C43.79 41.64, 40.94 44.57, 34.5 48 C23.18 50.39, 16.49 45.58, 11.5 48 C3.91 45.11, -2.67 44.47, 0 36.5 C-2.84 29.54, -0.85 22.79, 0 11.5 C0.17 1.39, 0.91 2.05, 11.5 0" stroke="none" stroke-width="0" fill="#ffffff"></path><path d="M11.5 0 C19.36 -1.66, 25.58 1.59, 34.5 0 M11.5 0 C17.8 -0.91, 24.32 -0.96, 34.5 0 M34.5 0 C41.9 -1.11, 45.22 4.39, 46 11.5 M34.5 0 C44.36 -1.61, 47.24 2.39, 46 11.5 M46 11.5 C46.06 20.83, 45.93 27.22, 46 36.5 M46 11.5 C46.15 17.72, 45.54 23.61, 46 36.5 M46 36.5 C47.19 44.43, 40.94 47.68, 34.5 48 M46 36.5 C47.6 44.79, 44.29 47.86, 34.5 48 M34.5 48 C28.34 48.43, 25.52 48.66, 11.5 48 M34.5 48 C29.17 47.38, 23.8 48.06, 11.5 48 M11.5 48 C4.96 49.66, -0.56 45.06, 0 36.5 M11.5 48 C4.95 47.16, -0.97 46.4, 0 36.5 M0 36.5 C-1.28 29.55, 1.03 20.94, 0 11.5 M0 36.5 C-0.25 29.37, -0.95 21.77, 0 11.5 M0 11.5 C0.87 3.06, 4.01 -0.93, 11.5 0 M0 11.5 C1.82 6.08, 4.17 -2.21, 11.5 0" stroke="#1e1e1e" stroke-width="2" fill="none"></path></g><g transform="translate(21.28125 85) rotate(0 11.71875 12)"><text x="11.71875" y="19.3125" font-family="Cascadia, Segoe UI Emoji" font-size="20px" fill="#1e1e1e" text-anchor="middle" style="white-space: pre;" direction="ltr" dominant-baseline="alphabetic">LB</text></g><g stroke-linecap="round"><g transform="translate(24 130) rotate(0 17.913935627788305 63.88668896928431)"><path d="M1.07 -0.91 C6.84 20.35, 29.07 107.25, 34.75 128.69" stroke="#e03131" stroke-width="2.5" fill="none" stroke-dasharray="1.5 8"></path></g><g transform="translate(24 130) rotate(0 17.913935627788305 63.88668896928431)"><path d="M20.57 108.1 C23.71 114.04, 30.84 121.23, 34.75 128.69" stroke="#e03131" stroke-width="2.5" fill="none" stroke-dasharray="1.5 6"></path></g><g transform="translate(24 130) rotate(0 17.913935627788305 63.88668896928431)"><path d="M37.12 103.8 C35.09 111.24, 37.01 119.78, 34.75 128.69" stroke="#e03131" stroke-width="2.5" fill="none" stroke-dasharray="1.5 6"></path></g></g><mask></mask></svg>