<svg version="1.1" xmlns="http://www.w3.org/2000/svg" viewBox="0 0 638.044499276951 348.5" width="638.044499276951" height="348.5" filter="invert(93%) hue-rotate(180deg)">
  <!-- svg-source:excalidraw -->
  
  <defs>
    <style class="style-fonts">
      @font-face {
        font-family: "Virgil";
        src: url("https://excalidraw.com/Virgil.woff2");
      }
      @font-face {
        font-family: "Cascadia";
        src: url("https://excalidraw.com/Cascadia.woff2");
      }
      @font-face {
        font-family: "Assistant";
        src: url("https://excalidraw.com/Assistant-Regular.woff2");
      }
    </style>
    
  </defs>
  <g stroke-linecap="round" transform="translate(10 41.5) rotate(0 175 53)"><path d="M26.5 0 C140.31 0.98, 252.34 -0.39, 323.5 0 M26.5 0 C113.64 -0.83, 199.8 -1.79, 323.5 0 M323.5 0 C341.62 -0.75, 348.44 10.76, 350 26.5 M323.5 0 C341.51 -1.18, 348.99 7.64, 350 26.5 M350 26.5 C350.82 39.04, 348.87 54.46, 350 79.5 M350 26.5 C350.51 43.75, 350.16 60.04, 350 79.5 M350 79.5 C349.13 95.8, 339.34 106.51, 323.5 106 M350 79.5 C350.14 96.3, 341.69 104.72, 323.5 106 M323.5 106 C228.45 105.63, 135.24 106.71, 26.5 106 M323.5 106 C214.22 106.98, 104.88 107.09, 26.5 106 M26.5 106 C10.02 106.72, -1.15 97.79, 0 79.5 M26.5 106 C7.49 107.65, -1.62 97.33, 0 79.5 M0 79.5 C-0.93 59.59, 1.48 36.43, 0 26.5 M0 79.5 C1.07 67.48, 0.35 57.4, 0 26.5 M0 26.5 C1.01 9.4, 9.9 -0.26, 26.5 0 M0 26.5 C0.49 8.01, 8.94 0.63, 26.5 0" stroke="#1e1e1e" stroke-width="2" fill="none"></path></g><g stroke-linecap="round" transform="translate(13 227.5) rotate(0 175 53)"><path d="M26.5 0 C134.91 0.62, 243.2 1.76, 323.5 0 M26.5 0 C99.13 0.76, 170.75 2.01, 323.5 0 M323.5 0 C340.24 -0.75, 348.83 10.04, 350 26.5 M323.5 0 C342.59 -0.95, 348.02 7.82, 350 26.5 M350 26.5 C350.67 41, 351.45 53.78, 350 79.5 M350 26.5 C349.58 45.27, 350.2 63.02, 350 79.5 M350 79.5 C348.52 96.93, 341.97 107.34, 323.5 106 M350 79.5 C350.61 97.73, 340.36 106.18, 323.5 106 M323.5 106 C233.91 103.16, 142.23 105.5, 26.5 106 M323.5 106 C233.16 106.13, 141.46 106.41, 26.5 106 M26.5 106 C9.69 104.57, 0.76 97.42, 0 79.5 M26.5 106 C10.95 105.6, 0.88 95.17, 0 79.5 M0 79.5 C-0.54 57.09, 1.45 37.43, 0 26.5 M0 79.5 C0.55 64.13, 0.93 48.74, 0 26.5 M0 26.5 C1.73 9.44, 10.73 -0.84, 26.5 0 M0 26.5 C2.02 10.39, 9.37 -1.43, 26.5 0" stroke="#1e1e1e" stroke-width="2" fill="none"></path></g><g stroke-linecap="round" transform="translate(31 64.5) rotate(0 27.5 30.5)"><path d="M13.75 0 C21 0.04, 25.24 -1.01, 41.25 0 M13.75 0 C20.93 -0.53, 27.76 0.38, 41.25 0 M41.25 0 C52.31 -0.84, 56.76 5.94, 55 13.75 M41.25 0 C50.95 -1.43, 56.37 6.53, 55 13.75 M55 13.75 C56.53 20, 54.49 28.87, 55 47.25 M55 13.75 C53.91 22.5, 55.64 30.61, 55 47.25 M55 47.25 C53.29 57.1, 50.09 59.72, 41.25 61 M55 47.25 C56.05 56.98, 49.77 59.48, 41.25 61 M41.25 61 C33.69 62.89, 26.36 62.42, 13.75 61 M41.25 61 C34.61 60.78, 28.22 61.77, 13.75 61 M13.75 61 C4.81 61.52, 1.12 55.46, 0 47.25 M13.75 61 C3.11 60.46, -2.16 54.78, 0 47.25 M0 47.25 C-0.1 42.19, 0.39 35, 0 13.75 M0 47.25 C0.36 40.02, -0.21 33.67, 0 13.75 M0 13.75 C1.46 5.74, 3.63 -0.54, 13.75 0 M0 13.75 C-0.19 3.26, 4.63 -0.71, 13.75 0" stroke="#1e1e1e" stroke-width="2" fill="none"></path></g><g transform="translate(38.88001251220703 82.5) rotate(0 19.61998748779297 12.5)"><text x="19.61998748779297" y="17.52" font-family="Virgil, Segoe UI Emoji" font-size="20px" fill="#1e1e1e" text-anchor="middle" style="white-space: pre;" direction="ltr" dominant-baseline="alphabetic">DFS</text></g><g stroke-linecap="round" transform="translate(34 250.5) rotate(0 68.5 30)"><path d="M15 0 C54.28 0.1, 98.93 0.31, 122 0 M15 0 C44.8 0.23, 72.66 -0.62, 122 0 M122 0 C131.84 -1.15, 137.04 4.38, 137 15 M122 0 C134.04 0.03, 137.01 3.45, 137 15 M137 15 C135.21 24.91, 135.43 30.71, 137 45 M137 15 C137.24 25.36, 137.54 36.52, 137 45 M137 45 C137.94 55.01, 132.6 58.76, 122 60 M137 45 C138.34 54.52, 132.88 60.88, 122 60 M122 60 C83.01 59.79, 39.37 60.94, 15 60 M122 60 C81.92 59.45, 41.18 58.29, 15 60 M15 60 C5.68 60.85, 1.17 56.7, 0 45 M15 60 C2.77 61.1, 0.13 56.04, 0 45 M0 45 C1.91 33.82, -0.33 26.58, 0 15 M0 45 C0.49 34.45, 0.38 22.94, 0 15 M0 15 C1.04 4.2, 5.34 -1.78, 15 0 M0 15 C-0.57 4.52, 4.25 -1.04, 15 0" stroke="#1e1e1e" stroke-width="2" fill="none"></path></g><g transform="translate(61.36004638671875 255.5) rotate(0 41.13995361328125 25)"><text x="41.13995361328125" y="17.52" font-family="Virgil, Segoe UI Emoji" font-size="20px" fill="#1e1e1e" text-anchor="middle" style="white-space: pre;" direction="ltr" dominant-baseline="alphabetic">Message</text><text x="41.13995361328125" y="42.519999999999996" font-family="Virgil, Segoe UI Emoji" font-size="20px" fill="#1e1e1e" text-anchor="middle" style="white-space: pre;" direction="ltr" dominant-baseline="alphabetic">Broker</text></g><g stroke-linecap="round" transform="translate(257 58.5) rotate(0 41 34.5)"><path d="M56.33 1.49 C63.43 3.46, 69.84 10.12, 74.23 15.96 C78.62 21.8, 82.85 29.85, 82.66 36.54 C82.47 43.24, 78.19 50.78, 73.08 56.13 C67.98 61.47, 59.91 66.92, 52.02 68.62 C44.12 70.32, 33.36 68.9, 25.73 66.32 C18.1 63.75, 10.59 58.72, 6.23 53.14 C1.87 47.57, -0.72 39.61, -0.43 32.88 C-0.13 26.16, 2.76 18.11, 8 12.81 C13.24 7.52, 22.64 2.86, 31.01 1.11 C39.38 -0.65, 53.29 1.67, 58.2 2.3 C63.12 2.92, 60.77 4.3, 60.5 4.86 M40.05 0.4 C47.51 -0.24, 57.53 2.44, 63.9 5.86 C70.26 9.28, 75.42 14.79, 78.25 20.91 C81.07 27.03, 82.8 35.92, 80.86 42.59 C78.92 49.27, 72.86 56.44, 66.63 60.96 C60.39 65.47, 51.65 69.39, 43.45 69.7 C35.26 70.01, 24.33 66.72, 17.45 62.81 C10.58 58.91, 4.72 52.54, 2.2 46.27 C-0.32 40.01, 0.21 31.92, 2.34 25.24 C4.47 18.56, 9.1 10.42, 15.01 6.2 C20.92 1.98, 33.95 0.87, 37.8 -0.08 C41.65 -1.03, 38.13 -0.33, 38.11 0.51" stroke="#1e1e1e" stroke-width="2" fill="none"></path></g><g transform="translate(279.0886390611953 80.60481604906411) rotate(0 18.91998291015625 12.5)"><text x="18.91998291015625" y="17.52" font-family="Virgil, Segoe UI Emoji" font-size="20px" fill="#1e1e1e" text-anchor="middle" style="white-space: pre;" direction="ltr" dominant-baseline="alphabetic">View</text></g><g stroke-linecap="round" transform="translate(261 247) rotate(0 41 34.5)"><path d="M60.82 3.81 C67.73 6.23, 73.51 12.48, 76.84 18.69 C80.17 24.89, 82.05 34.45, 80.83 41.04 C79.61 47.62, 74.99 53.75, 69.53 58.21 C64.06 62.68, 55.93 66.7, 48.02 67.81 C40.11 68.93, 29.44 67.72, 22.07 64.9 C14.7 62.07, 7.46 56.78, 3.81 50.87 C0.16 44.97, -1.07 36.28, 0.18 29.45 C1.43 22.62, 5.67 14.72, 11.31 9.88 C16.95 5.03, 24.85 0.7, 34.04 0.36 C43.23 0.02, 60.35 5.92, 66.45 7.84 C72.55 9.76, 71.28 11.55, 70.64 11.9 M32.26 1.51 C39.46 -0.51, 50.54 -0.48, 58.1 2.22 C65.65 4.92, 73.82 11.78, 77.59 17.73 C81.36 23.68, 81.95 31.02, 80.73 37.94 C79.5 44.85, 75.69 54.2, 70.23 59.22 C64.77 64.24, 55.58 67.11, 47.95 68.05 C40.31 68.98, 31.68 67.51, 24.41 64.82 C17.14 62.12, 8.37 57.65, 4.31 51.88 C0.25 46.11, -1.2 37.05, 0.03 30.17 C1.25 23.29, 5.9 15.29, 11.66 10.59 C17.42 5.9, 30.89 3.47, 34.58 2 C38.26 0.53, 33.79 1.57, 33.77 1.75" stroke="#1e1e1e" stroke-width="2" fill="none"></path></g><g transform="translate(283.0886390611953 269.1048160490641) rotate(0 18.91998291015625 12.5)"><text x="18.91998291015625" y="17.52" font-family="Virgil, Segoe UI Emoji" font-size="20px" fill="#1e1e1e" text-anchor="middle" style="white-space: pre;" direction="ltr" dominant-baseline="alphabetic">View</text></g><g stroke-linecap="round"><g transform="translate(87 94.5) rotate(0 86 0)"><path d="M0.79 0.93 C29.19 0.88, 142.75 0.67, 171.43 0.44 M-0.26 0.38 C27.85 -0.12, 141.38 -1.5, 170.18 -1.45" stroke="#1e1e1e" stroke-width="2" fill="none"></path></g><g transform="translate(87 94.5) rotate(0 86 0)"><path d="M169.15 0.49 L156.64 4.8 L155.49 -8.18 L169.76 -1.4" stroke="none" stroke-width="0" fill="#1e1e1e" fill-rule="evenodd"></path><path d="M170.18 -1.45 C166.17 0.4, 160.33 4.67, 156.62 4.98 M170.18 -1.45 C166.13 0.58, 162.38 1.59, 156.62 4.98 M156.62 4.98 C157.33 0.67, 156.31 -2.34, 156.54 -7.7 M156.62 4.98 C156.04 2.08, 157.19 -1.68, 156.54 -7.7 M156.54 -7.7 C159 -7.03, 162.7 -3.43, 170.18 -1.45 M156.54 -7.7 C160.43 -5.43, 163.53 -4.8, 170.18 -1.45 M170.18 -1.45 C170.18 -1.45, 170.18 -1.45, 170.18 -1.45 M170.18 -1.45 C170.18 -1.45, 170.18 -1.45, 170.18 -1.45" stroke="#1e1e1e" stroke-width="2" fill="none"></path></g></g><mask></mask><g stroke-linecap="round"><g transform="translate(171 280.5) rotate(0 44 0)"><path d="M-0.38 -0.66 C14.57 -0.57, 74.16 0.48, 88.71 0.57 M1.62 1.6 C16.57 1.34, 73.53 -1.18, 88.14 -1.25" stroke="#1e1e1e" stroke-width="2" fill="none"></path></g><g transform="translate(171 280.5) rotate(0 44 0)"><path d="M86.64 -0.57 L74.84 6.63 L76.35 -8.42 L86.25 0.51" stroke="none" stroke-width="0" fill="#1e1e1e" fill-rule="evenodd"></path><path d="M88.14 -1.25 C84.41 1.04, 83.06 0.3, 74.72 5.45 M88.14 -1.25 C83.52 0.05, 79.62 3.16, 74.72 5.45 M74.72 5.45 C75.24 0.14, 75.37 -4.26, 74.38 -7.22 M74.72 5.45 C73.93 1.99, 74.02 -1, 74.38 -7.22 M74.38 -7.22 C78.79 -6.29, 85.7 -4.28, 88.14 -1.25 M74.38 -7.22 C78.36 -6.1, 81.21 -4.34, 88.14 -1.25 M88.14 -1.25 C88.14 -1.25, 88.14 -1.25, 88.14 -1.25 M88.14 -1.25 C88.14 -1.25, 88.14 -1.25, 88.14 -1.25" stroke="#1e1e1e" stroke-width="2" fill="none"></path></g></g><mask></mask><g stroke-linecap="round" transform="translate(450 50.5) rotate(0 61 144)"><path d="M30.5 0 C49.64 0.34, 70.37 0.54, 91.5 0 M30.5 0 C44.61 -0.96, 58.43 -0.59, 91.5 0 M91.5 0 C109.97 -0.79, 122.42 11.08, 122 30.5 M91.5 0 C109.78 -1.35, 123.64 9.49, 122 30.5 M122 30.5 C122.33 110.34, 119.51 189.5, 122 257.5 M122 30.5 C120.87 94.81, 120.35 158.01, 122 257.5 M122 257.5 C120.77 278.88, 110.9 287.78, 91.5 288 M122 257.5 C120.01 279.85, 113.39 287.12, 91.5 288 M91.5 288 C74.71 288.38, 59.34 288.78, 30.5 288 M91.5 288 C78.5 287.58, 65.37 288.24, 30.5 288 M30.5 288 C8.41 289.61, 1.83 277.28, 0 257.5 M30.5 288 C12.05 288.66, -0.78 276.13, 0 257.5 M0 257.5 C0.24 179.25, 1.05 97.82, 0 30.5 M0 257.5 C0.29 210.98, 0.99 163.74, 0 30.5 M0 30.5 C-0.42 9.1, 11.28 0.22, 30.5 0 M0 30.5 C1.53 12.1, 8.01 -0.57, 30.5 0" stroke="#1e1e1e" stroke-width="2" fill="none"></path></g><g transform="translate(33 196.5) rotate(0 59.75993347167969 12.5)"><text x="0" y="17.52" font-family="Virgil, Segoe UI Emoji" font-size="20px" fill="#1e1e1e" text-anchor="start" style="white-space: pre;" direction="ltr" dominant-baseline="alphabetic">Speed Layer</text></g><g transform="translate(33.24006652832031 10) rotate(0 61.66993713378906 12.5)"><text x="0" y="17.52" font-family="Virgil, Segoe UI Emoji" font-size="20px" fill="#1e1e1e" text-anchor="start" style="white-space: pre;" direction="ltr" dominant-baseline="alphabetic">Batch Layer</text></g><g transform="translate(478.33006286621094 81) rotate(0 32.94996643066406 25)"><text x="0" y="17.52" font-family="Virgil, Segoe UI Emoji" font-size="20px" fill="#1e1e1e" text-anchor="start" style="white-space: pre;" direction="ltr" dominant-baseline="alphabetic">Serving</text><text x="0" y="42.519999999999996" font-family="Virgil, Segoe UI Emoji" font-size="20px" fill="#1e1e1e" text-anchor="start" style="white-space: pre;" direction="ltr" dominant-baseline="alphabetic">Layer</text></g><g stroke-linecap="round"><g transform="translate(341 94.5) rotate(0 52.5 58.5)"><path d="M-0.81 -0.78 C16.55 18.53, 87.86 97.18, 105.31 116.99 M0.97 1.42 C18.09 21.45, 86.98 99.38, 104.53 118.52" stroke="#1e1e1e" stroke-width="2" fill="none"></path></g><g transform="translate(341 94.5) rotate(0 52.5 58.5)"><path d="M105.88 119.06 L92.58 110.95 L98.5 102.67 L105.04 120.47" stroke="none" stroke-width="0" fill="#1e1e1e" fill-rule="evenodd"></path><path d="M104.53 118.52 C98.01 116.48, 93.48 112.4, 90.73 112.64 M104.53 118.52 C98.56 115.53, 93.09 113.89, 90.73 112.64 M90.73 112.64 C93.72 110.44, 96.74 107.34, 100.17 104.17 M90.73 112.64 C92.31 110.81, 94.87 108.45, 100.17 104.17 M100.17 104.17 C99.73 107.56, 102.01 112.59, 104.53 118.52 M100.17 104.17 C100.73 107.6, 101.34 110.01, 104.53 118.52 M104.53 118.52 C104.53 118.52, 104.53 118.52, 104.53 118.52 M104.53 118.52 C104.53 118.52, 104.53 118.52, 104.53 118.52" stroke="#1e1e1e" stroke-width="2" fill="none"></path></g></g><mask></mask><g stroke-linecap="round"><g transform="translate(344 284.102196) rotate(0 50 -37)"><path d="M-1.1 1.11 C15.25 -11.54, 82.53 -62.09, 99.19 -74.76 M0.53 0.65 C17.16 -11.35, 84.71 -61.17, 101.48 -73.63" stroke="#1e1e1e" stroke-width="2" fill="none"></path></g><g transform="translate(344 284.102196) rotate(0 50 -37)"><path d="M102.04 -75.53 L94.13 -60.31 L88.33 -69.12 L101.08 -72.64" stroke="none" stroke-width="0" fill="#1e1e1e" fill-rule="evenodd"></path><path d="M101.48 -73.63 C100.18 -69.53, 95.02 -64.79, 94.32 -60.44 M101.48 -73.63 C99.72 -70.36, 97.97 -68.24, 94.32 -60.44 M94.32 -60.44 C91.24 -64.08, 88.61 -65.99, 86.78 -70.64 M94.32 -60.44 C91.93 -62.91, 90.34 -65.81, 86.78 -70.64 M86.78 -70.64 C91.47 -72.01, 95.79 -72.43, 101.48 -73.63 M86.78 -70.64 C90.73 -71.04, 93.2 -72.34, 101.48 -73.63 M101.48 -73.63 C101.48 -73.63, 101.48 -73.63, 101.48 -73.63 M101.48 -73.63 C101.48 -73.63, 101.48 -73.63, 101.48 -73.63" stroke="#1e1e1e" stroke-width="2" fill="none"></path></g></g><mask></mask><g stroke-linecap="round"><g transform="translate(573 213.18803641394322) rotate(0 27.5 -0.8440182069716116)"><path d="M-0.59 0.44 C8.69 0.07, 45.89 -1.45, 55.04 -1.66 M1.3 -0.37 C10.48 -0.58, 45.46 0.28, 54.12 -0.11" stroke="#1e1e1e" stroke-width="2" fill="none"></path></g><g transform="translate(573 213.18803641394322) rotate(0 27.5 -0.8440182069716116)"><path d="M52.37 -1.7 L39.33 5.45 L40.4 -6.26 L54.2 0.36" stroke="none" stroke-width="0" fill="#1e1e1e" fill-rule="evenodd"></path><path d="M54.12 -0.11 C51.36 1.46, 47.49 2.18, 40.56 6.31 M54.12 -0.11 C48.65 2.58, 44.53 4.89, 40.56 6.31 M40.56 6.31 C41.24 3.38, 39.75 0.58, 40.49 -6.37 M40.56 6.31 C40.51 3.2, 41.05 0.03, 40.49 -6.37 M40.49 -6.37 C44.15 -5.66, 50.28 -2.56, 54.12 -0.11 M40.49 -6.37 C44.76 -5.08, 48.91 -3.42, 54.12 -0.11 M54.12 -0.11 C54.12 -0.11, 54.12 -0.11, 54.12 -0.11 M54.12 -0.11 C54.12 -0.11, 54.12 -0.11, 54.12 -0.11" stroke="#1e1e1e" stroke-width="2" fill="none"></path></g></g><mask></mask><g stroke-linecap="round"><g transform="translate(189.42777830178227 284.8281457532928) rotate(0 18.311716861074615 -9.860155232886314)"><path d="M-0.29 -1.1 C1.78 -4.49, 6.2 -18.42, 12.34 -19.82 C18.49 -21.22, 32.32 -11.45, 36.56 -9.51 M1.76 0.93 C3.77 -2.31, 6.29 -16.72, 11.96 -18.33 C17.63 -19.94, 31.92 -10.65, 35.76 -8.74" stroke="#2f9e44" stroke-width="2" fill="none"></path></g><g transform="translate(189.42777830178227 284.8281457532928) rotate(0 18.311716861074615 -9.860155232886314)"><path d="M37.74 -7.47 L21.97 -10.21 L29.52 -19.4 L33.99 -9.68" stroke="none" stroke-width="0" fill="#2f9e44" fill-rule="evenodd"></path><path d="M35.76 -8.74 C30.4 -7.83, 27.48 -9.44, 21.93 -9.75 M35.76 -8.74 C32.85 -9.38, 30.28 -8.56, 21.93 -9.75 M21.93 -9.75 C24.1 -13.18, 25.45 -15.27, 27.64 -19.99 M21.93 -9.75 C23.43 -13.45, 26.29 -17.39, 27.64 -19.99 M27.64 -19.99 C30.58 -15.46, 32.04 -13.53, 35.76 -8.74 M27.64 -19.99 C29.9 -15.32, 32.67 -11.66, 35.76 -8.74 M35.76 -8.74 C35.76 -8.74, 35.76 -8.74, 35.76 -8.74 M35.76 -8.74 C35.76 -8.74, 35.76 -8.74, 35.76 -8.74" stroke="#2f9e44" stroke-width="2" fill="none"></path></g></g><mask></mask><g stroke-linecap="round"><g transform="translate(226.4536673395595 282.8158691751527) rotate(0 -16.500667940748542 9.658927575072312)"><path d="M1.08 -0.1 C-1.7 3.13, -11.48 17.06, -16.96 18.26 C-22.45 19.47, -29.15 9.19, -31.81 7.15 M0.18 -1.19 C-2.74 2.24, -12.59 17.61, -17.95 19.25 C-23.3 20.89, -29.5 10.72, -31.96 8.63" stroke="#2f9e44" stroke-width="2" fill="none"></path></g><g transform="translate(226.4536673395595 282.8158691751527) rotate(0 -16.500667940748542 9.658927575072312)"><path d="M-31.91 8.18 L-20.75 13.31 L-30.87 17.47 L-30.93 6.81" stroke="none" stroke-width="0" fill="#2f9e44" fill-rule="evenodd"></path><path d="M-31.96 8.63 C-29.5 9.63, -27.74 11.81, -22.63 12.72 M-31.96 8.63 C-28.62 10.45, -25.92 11.72, -22.63 12.72 M-22.63 12.72 C-24.83 15.19, -26.95 17.53, -29.09 18.41 M-22.63 12.72 C-24.27 14.11, -26.14 15.88, -29.09 18.41 M-29.09 18.41 C-30.95 14.21, -30.4 11.04, -31.96 8.63 M-29.09 18.41 C-30.09 16.62, -30.39 14.86, -31.96 8.63 M-31.96 8.63 C-31.96 8.63, -31.96 8.63, -31.96 8.63 M-31.96 8.63 C-31.96 8.63, -31.96 8.63, -31.96 8.63" stroke="#2f9e44" stroke-width="2" fill="none"></path></g></g><mask></mask><g stroke-linecap="round"><g transform="translate(158.09363914679523 95.77076835482211) rotate(0 18.311716861074615 -9.860155232886314)"><path d="M-1.09 0.32 C0.9 -2.8, 5.75 -17.38, 12.1 -18.92 C18.46 -20.46, 32.77 -10.78, 37.04 -8.93 M0.54 -0.56 C2.43 -4, 5.6 -19.4, 11.59 -20.62 C17.58 -21.84, 32.61 -9.62, 36.5 -7.87" stroke="#2f9e44" stroke-width="2" fill="none"></path></g><g transform="translate(158.09363914679523 95.77076835482211) rotate(0 18.311716861074615 -9.860155232886314)"><path d="M37.45 -6.27 L24.34 -9.49 L28.05 -19.13 L38.47 -8.05" stroke="none" stroke-width="0" fill="#2f9e44" fill-rule="evenodd"></path><path d="M36.5 -7.87 C32.55 -7.58, 28.8 -8.6, 22.73 -9.61 M36.5 -7.87 C32.79 -8.85, 30 -8.58, 22.73 -9.61 M22.73 -9.61 C24.27 -13.03, 26.33 -14.83, 28.98 -19.53 M22.73 -9.61 C24.66 -12.49, 26.09 -15.81, 28.98 -19.53 M28.98 -19.53 C31.55 -17.75, 31.49 -15.89, 36.5 -7.87 M28.98 -19.53 C30.58 -16.05, 32.55 -13.17, 36.5 -7.87 M36.5 -7.87 C36.5 -7.87, 36.5 -7.87, 36.5 -7.87 M36.5 -7.87 C36.5 -7.87, 36.5 -7.87, 36.5 -7.87" stroke="#2f9e44" stroke-width="2" fill="none"></path></g></g><mask></mask><g stroke-linecap="round"><g transform="translate(195.11952818457246 93.75849177668198) rotate(0 -16.500667940748542 9.658927575072312)"><path d="M0.83 0.8 C-1.73 3.89, -11.03 17.73, -16.48 18.83 C-21.94 19.94, -29.09 9.6, -31.88 7.43 M-0.19 0.18 C-2.78 3.4, -11.9 19.25, -17.21 20.12 C-22.52 20.99, -29.41 7.69, -32.05 5.4" stroke="#2f9e44" stroke-width="2" fill="none"></path></g><g transform="translate(195.11952818457246 93.75849177668198) rotate(0 -16.500667940748542 9.658927575072312)"><path d="M-30.44 5.52 L-23.94 10.47 L-27.84 15.15 L-32.39 5.21" stroke="none" stroke-width="0" fill="#2f9e44" fill-rule="evenodd"></path><path d="M-32.05 5.4 C-29.46 6.67, -28.66 8.24, -23 10.07 M-32.05 5.4 C-28.41 7.19, -25.85 9, -23 10.07 M-23 10.07 C-24.52 11.49, -26.29 12.44, -29.81 15.33 M-23 10.07 C-25.38 11.47, -27.66 13.46, -29.81 15.33 M-29.81 15.33 C-31.03 11.38, -31.84 8.78, -32.05 5.4 M-29.81 15.33 C-30.41 13.28, -31.01 10.78, -32.05 5.4 M-32.05 5.4 C-32.05 5.4, -32.05 5.4, -32.05 5.4 M-32.05 5.4 C-32.05 5.4, -32.05 5.4, -32.05 5.4" stroke="#2f9e44" stroke-width="2" fill="none"></path></g></g><mask></mask></svg>