<svg version="1.1" xmlns="http://www.w3.org/2000/svg" viewBox="0 0 624.5 301.59999999999997" width="624.5" height="301.59999999999997" filter="invert(93%) hue-rotate(180deg)">
  <!-- svg-source:excalidraw -->
  
  <defs>
    <style class="style-fonts">
      @font-face {
        font-family: "Virgil";
        src: url("https://excalidraw.com/Virgil.woff2");
      }
      @font-face {
        font-family: "Cascadia";
        src: url("https://excalidraw.com/Cascadia.woff2");
      }
      @font-face {
        font-family: "Assistant";
        src: url("https://excalidraw.com/Assistant-Regular.woff2");
      }
    </style>
    
  </defs>
  <g stroke-linecap="round" transform="translate(10 11) rotate(0 61.5 94)"><path d="M30.75 0 C51.35 -1.14, 73.1 1.81, 92.25 0 M30.75 0 C46.99 -0.72, 64.77 0, 92.25 0 M92.25 0 C113.4 -1.25, 124.57 9.24, 123 30.75 M92.25 0 C112.7 -0.21, 122.18 11.87, 123 30.75 M123 30.75 C124.51 68.71, 124.03 109.06, 123 157.25 M123 30.75 C123.1 76.76, 124.54 122.11, 123 157.25 M123 157.25 C124.23 177.54, 111.03 186.8, 92.25 188 M123 157.25 C122.43 179.99, 113.53 186.52, 92.25 188 M92.25 188 C71.14 189.55, 47.3 187.87, 30.75 188 M92.25 188 C68.19 187.14, 45.3 188.74, 30.75 188 M30.75 188 C11.37 186.83, -1.72 175.93, 0 157.25 M30.75 188 C8.9 189.43, -1.97 175.85, 0 157.25 M0 157.25 C-0.23 121.25, 1.24 81.56, 0 30.75 M0 157.25 C0.24 107.16, -0.5 57.36, 0 30.75 M0 30.75 C-0.32 11.99, 11.92 1.1, 30.75 0 M0 30.75 C-1.6 11.33, 9.31 -2.29, 30.75 0" stroke="#1e1e1e" stroke-width="2" fill="none"></path></g><g transform="translate(36.34375 93) rotate(0 35.15625 12)"><text x="35.15625" y="19.3125" font-family="Cascadia, Segoe UI Emoji" font-size="20px" fill="#1e1e1e" text-anchor="middle" style="white-space: pre;" direction="ltr" dominant-baseline="alphabetic">tier 1</text></g><g stroke-linecap="round" transform="translate(251.5 10) rotate(0 61.5 94)"><path d="M30.75 0 C44.87 1.4, 55.1 1.49, 92.25 0 M30.75 0 C48.6 1.04, 63.76 0.29, 92.25 0 M92.25 0 C113.98 1.64, 121.24 11.64, 123 30.75 M92.25 0 C112.35 1.15, 121.97 10.63, 123 30.75 M123 30.75 C123.85 64.45, 121.05 100.86, 123 157.25 M123 30.75 C121.73 61.41, 121.75 91.25, 123 157.25 M123 157.25 C123.29 177.1, 114.69 189.89, 92.25 188 M123 157.25 C124 177.22, 114.91 186.75, 92.25 188 M92.25 188 C68.77 186.43, 45.91 189.34, 30.75 188 M92.25 188 C70.14 187.67, 48.26 188.03, 30.75 188 M30.75 188 C9.98 189.99, 1.19 179.15, 0 157.25 M30.75 188 C11.93 188.57, 0.05 175.54, 0 157.25 M0 157.25 C0.28 113.08, -0.24 68.74, 0 30.75 M0 157.25 C1.12 124.28, 1.96 90.72, 0 30.75 M0 30.75 C1.45 8.95, 9.13 0.74, 30.75 0 M0 30.75 C-1.78 8.16, 10.21 1.68, 30.75 0" stroke="#1e1e1e" stroke-width="2" fill="none"></path></g><g transform="translate(277.84375 92) rotate(0 35.15625 12)"><text x="35.15625" y="19.3125" font-family="Cascadia, Segoe UI Emoji" font-size="20px" fill="#1e1e1e" text-anchor="middle" style="white-space: pre;" direction="ltr" dominant-baseline="alphabetic">tier 2</text></g><g stroke-linecap="round" transform="translate(491.5 10) rotate(0 61.5 94)"><path d="M30.75 0 C52.05 1.5, 72.23 -0.82, 92.25 0 M30.75 0 C45.66 0.9, 59.25 0.26, 92.25 0 M92.25 0 C112.46 -1.6, 122.24 10.89, 123 30.75 M92.25 0 C113.29 0.27, 121.74 9.73, 123 30.75 M123 30.75 C122.74 57.23, 123.34 85.07, 123 157.25 M123 30.75 C123.69 76.39, 122.63 124, 123 157.25 M123 157.25 C124.13 177.88, 111 189.64, 92.25 188 M123 157.25 C121.3 178.58, 114.42 188.37, 92.25 188 M92.25 188 C76.93 188.51, 61.13 187.83, 30.75 188 M92.25 188 C69.55 187.03, 45.94 188.65, 30.75 188 M30.75 188 C8.28 187.55, -0.13 178.97, 0 157.25 M30.75 188 C11.87 186.96, -0.48 175.81, 0 157.25 M0 157.25 C-0.5 132.42, -0.74 103.06, 0 30.75 M0 157.25 C-0.78 109.39, 0.13 61.29, 0 30.75 M0 30.75 C-0.43 9.14, 10.47 0.48, 30.75 0 M0 30.75 C-2.3 8.61, 8.78 0.04, 30.75 0" stroke="#1e1e1e" stroke-width="2" fill="none"></path></g><g transform="translate(517.84375 92) rotate(0 35.15625 12)"><text x="35.15625" y="19.3125" font-family="Cascadia, Segoe UI Emoji" font-size="20px" fill="#1e1e1e" text-anchor="middle" style="white-space: pre;" direction="ltr" dominant-baseline="alphabetic">tier 3</text></g><g stroke-linecap="round"><g transform="translate(140 101) rotate(0 55.5 0)"><path d="M0.94 -0.68 C19.57 -0.69, 92.26 -1.16, 110.64 -0.94 M-0.03 1.58 C18.51 1.77, 91.07 0.59, 109.5 0.11" stroke="#1e1e1e" stroke-width="2" fill="none"></path></g><g transform="translate(140 101) rotate(0 55.5 0)"><path d="M86.18 9.13 C89.93 6.48, 94.31 5.61, 109.5 0.11 M86.18 9.13 C94.55 5.97, 102.54 3.38, 109.5 0.11" stroke="#1e1e1e" stroke-width="2" fill="none"></path></g><g transform="translate(140 101) rotate(0 55.5 0)"><path d="M85.84 -7.97 C89.53 -7.09, 93.98 -4.44, 109.5 0.11 M85.84 -7.97 C94.18 -5.01, 102.3 -1.48, 109.5 0.11" stroke="#1e1e1e" stroke-width="2" fill="none"></path></g></g><mask></mask><g stroke-linecap="round"><g transform="translate(379.69376306558956 102.69837785437568) rotate(0 54.15311846720522 0)"><path d="M0.52 -0.09 C18.59 -0.1, 91.16 -0.36, 109.14 -0.22 M-0.66 -1.18 C17.25 -1, 90.58 1.21, 108.64 1.19" stroke="#1e1e1e" stroke-width="2" fill="none"></path></g><g transform="translate(379.69376306558956 102.69837785437568) rotate(0 54.15311846720522 0)"><path d="M85 9.35 C93.45 7.68, 101.8 3.5, 108.64 1.19 M85 9.35 C94.1 6.74, 101.19 4.23, 108.64 1.19" stroke="#1e1e1e" stroke-width="2" fill="none"></path></g><g transform="translate(379.69376306558956 102.69837785437568) rotate(0 54.15311846720522 0)"><path d="M85.29 -7.75 C93.62 -3.21, 101.86 -1.18, 108.64 1.19 M85.29 -7.75 C94.34 -4.2, 101.33 -0.55, 108.64 1.19" stroke="#1e1e1e" stroke-width="2" fill="none"></path></g></g><mask></mask><g mask="url(#mask-h59C1k10-GIdE-Fg42l0n)" stroke-linecap="round"><g transform="translate(95 213) rotate(0 223 28.5)"><path d="M-0.61 -0.22 C34.62 9.07, 136.25 55.54, 210.58 56.4 C284.91 57.26, 406.02 13.32, 445.35 4.95 M1.27 -1.38 C36.37 8, 135.58 56.35, 209.41 57.62 C283.24 58.89, 404.63 15.13, 444.25 6.24" stroke="#1e1e1e" stroke-width="2" fill="none"></path></g><g transform="translate(95 213) rotate(0 223 28.5)"><path d="M423.95 20.83 C428.22 16.84, 432.29 13.07, 444.25 6.24 M423.95 20.83 C429.05 15.61, 434.9 11.01, 444.25 6.24" stroke="#1e1e1e" stroke-width="2" fill="none"></path></g><g transform="translate(95 213) rotate(0 223 28.5)"><path d="M419.32 4.37 C424.76 4.23, 429.91 4.28, 444.25 6.24 M419.32 4.37 C425.86 3.97, 433.08 4.23, 444.25 6.24" stroke="#1e1e1e" stroke-width="2" fill="none"></path></g></g><mask id="mask-h59C1k10-GIdE-Fg42l0n"><rect x="0" y="0" fill="#fff" width="641" height="370"></rect><rect x="295.453125" y="248.39999999999998" fill="#000" width="21.09375" height="43.199999999999996" opacity="1"></rect></mask><g transform="translate(295.453125 248.39999999999998) rotate(0 21.916108380630646 -7.265020947699298)"><text x="10.546875" y="34.762499999999996" font-family="Cascadia, Segoe UI Emoji" font-size="36px" fill="#e03131" text-anchor="middle" style="white-space: pre;" direction="ltr" dominant-baseline="alphabetic">X</text></g></svg>